<?xml version="1.0" encoding="us-ascii" standalone="no"?><svg xmlns="http://www.w3.org/2000/svg" xmlns:xlink="http://www.w3.org/1999/xlink" contentStyleType="text/css" height="1103px" preserveAspectRatio="none" style="width:1178px;height:1103px;background:#FFFFFF;" version="1.1" viewBox="0 0 1178 1103" width="1178px" zoomAndPan="magnify"><defs><filter height="300%" id="fl3m0gjnc660v" width="300%" x="-1" y="-1"><feGaussianBlur result="blurOut" stdDeviation="2.0"/><feColorMatrix in="blurOut" result="blurOut2" type="matrix" values="0 0 0 0 0 0 0 0 0 0 0 0 0 0 0 0 0 0 .4 0"/><feOffset dx="4.0" dy="4.0" in="blurOut2" result="blurOut3"/><feBlend in="SourceGraphic" in2="blurOut3" mode="normal"/></filter></defs><g><rect fill="#E8F4FD" height="1084.4688" rx="5" ry="5" style="stroke:#1A6DAF;stroke-width:0.5;" width="1124" x="21" y="6"/><text fill="#1A6DAF" font-family="sans-serif" font-size="13" font-weight="bold" lengthAdjust="spacing" textLength="294.4063" x="435.7969" y="19.4951">Plateforme KAFA'AT EMS &#8212; Module Worktime</text><rect fill="#E8F4FD" filter="url(#fl3m0gjnc660v)" height="30.3516" style="stroke:#1A6DAF;stroke-width:1.0;" width="10" x="420.5" y="239.9766"/><rect fill="#E8F4FD" filter="url(#fl3m0gjnc660v)" height="651.2188" style="stroke:#1A6DAF;stroke-width:1.0;" width="10" x="420.5" y="345.0313"/><rect fill="#D6EAF8" filter="url(#fl3m0gjnc660v)" height="512.4609" style="stroke:#1A6DAF;stroke-width:1.0;" width="10" x="666.5" y="483.7891"/><rect fill="#AED6F1" filter="url(#fl3m0gjnc660v)" height="30.3516" style="stroke:#1A6DAF;stroke-width:1.0;" width="10" x="917.5" y="601.8438"/><rect fill="#AED6F1" filter="url(#fl3m0gjnc660v)" height="30.3516" style="stroke:#1A6DAF;stroke-width:1.0;" width="10" x="917.5" y="704.25"/><rect fill="#D6EAF8" filter="url(#fl3m0gjnc660v)" height="30.3516" style="stroke:#1A6DAF;stroke-width:1.0;" width="10" x="1047" y="790.3047"/><rect fill="none" filter="url(#fl3m0gjnc660v)" height="78.0547" rx="5" ry="5" style="stroke:#000000;stroke-width:1.5;" width="291.5" x="351" y="360.0313"/><rect fill="none" filter="url(#fl3m0gjnc660v)" height="342.0547" rx="5" ry="5" style="stroke:#000000;stroke-width:1.5;" width="1146" x="15" y="647.1953"/><rect fill="none" filter="url(#fl3m0gjnc660v)" height="79.0547" rx="5" ry="5" style="stroke:#000000;stroke-width:1.5;" width="566" x="585" y="749.6016"/><line style="stroke:#1A6DAF;stroke-width:0.5;stroke-dasharray:5.0,5.0;" x1="73" x2="73" y1="107.5703" y2="1006.25"/><line style="stroke:#1A6DAF;stroke-width:0.5;stroke-dasharray:5.0,5.0;" x1="425" x2="425" y1="107.5703" y2="1006.25"/><line style="stroke:#1A6DAF;stroke-width:0.5;stroke-dasharray:5.0,5.0;" x1="671" x2="671" y1="107.5703" y2="1006.25"/><line style="stroke:#1A6DAF;stroke-width:0.5;stroke-dasharray:5.0,5.0;" x1="922" x2="922" y1="107.5703" y2="1006.25"/><line style="stroke:#1A6DAF;stroke-width:0.5;stroke-dasharray:5.0,5.0;" x1="1052" x2="1052" y1="107.5703" y2="1006.25"/><text fill="#0D3349" font-family="sans-serif" font-size="14" lengthAdjust="spacing" textLength="91" x="25" y="104.4941">Administrateur</text><ellipse cx="73.5" cy="35.4609" fill="#1A6DAF" filter="url(#fl3m0gjnc660v)" rx="8" ry="8" style="stroke:#0D3349;stroke-width:0.5;"/><path d="M73.5,43.4609 L73.5,70.4609 M60.5,51.4609 L86.5,51.4609 M73.5,70.4609 L60.5,85.4609 M73.5,70.4609 L86.5,85.4609 " fill="none" filter="url(#fl3m0gjnc660v)" style="stroke:#0D3349;stroke-width:0.5;"/><text fill="#0D3349" font-family="sans-serif" font-size="14" lengthAdjust="spacing" textLength="91" x="25" y="1019.7832">Administrateur</text><ellipse cx="73.5" cy="1031.3594" fill="#1A6DAF" filter="url(#fl3m0gjnc660v)" rx="8" ry="8" style="stroke:#0D3349;stroke-width:0.5;"/><path d="M73.5,1039.3594 L73.5,1066.3594 M60.5,1047.3594 L86.5,1047.3594 M73.5,1066.3594 L60.5,1081.3594 M73.5,1066.3594 L86.5,1081.3594 " fill="none" filter="url(#fl3m0gjnc660v)" style="stroke:#0D3349;stroke-width:0.5;"/><rect fill="#1A6DAF" filter="url(#fl3m0gjnc660v)" height="46.7031" rx="5" ry="5" style="stroke:#1A6DAF;stroke-width:0.5;" width="66" x="391" y="56.8672"/><text fill="#0A2540" font-family="sans-serif" font-size="13" lengthAdjust="spacing" textLength="51" x="398.5" y="77.3623">Frontend</text><text fill="#0A2540" font-family="sans-serif" font-size="13" lengthAdjust="spacing" textLength="52" x="398" y="93.7139">(Angular)</text><rect fill="#1A6DAF" filter="url(#fl3m0gjnc660v)" height="46.7031" rx="5" ry="5" style="stroke:#1A6DAF;stroke-width:0.5;" width="66" x="391" y="1005.25"/><text fill="#0A2540" font-family="sans-serif" font-size="13" lengthAdjust="spacing" textLength="51" x="398.5" y="1025.7451">Frontend</text><text fill="#0A2540" font-family="sans-serif" font-size="13" lengthAdjust="spacing" textLength="52" x="398" y="1042.0967">(Angular)</text><rect fill="#2E86C1" filter="url(#fl3m0gjnc660v)" height="46.7031" rx="5" ry="5" style="stroke:#1A6DAF;stroke-width:0.5;" width="90" x="625" y="56.8672"/><text fill="#0A2540" font-family="sans-serif" font-size="13" lengthAdjust="spacing" textLength="51" x="644.5" y="77.3623">Backend</text><text fill="#0A2540" font-family="sans-serif" font-size="13" lengthAdjust="spacing" textLength="76" x="632" y="93.7139">(Spring Boot)</text><rect fill="#2E86C1" filter="url(#fl3m0gjnc660v)" height="46.7031" rx="5" ry="5" style="stroke:#1A6DAF;stroke-width:0.5;" width="90" x="625" y="1005.25"/><text fill="#0A2540" font-family="sans-serif" font-size="13" lengthAdjust="spacing" textLength="51" x="644.5" y="1025.7451">Backend</text><text fill="#0A2540" font-family="sans-serif" font-size="13" lengthAdjust="spacing" textLength="76" x="632" y="1042.0967">(Spring Boot)</text><text fill="#000000" font-family="sans-serif" font-size="14" lengthAdjust="spacing" textLength="52" x="893.5" y="86.8848">Base de</text><text fill="#000000" font-family="sans-serif" font-size="14" lengthAdjust="spacing" textLength="55" x="892" y="104.4941">donn&#233;es</text><path d="M904.5,36.3516 C904.5,26.3516 922.5,26.3516 922.5,26.3516 C922.5,26.3516 940.5,26.3516 940.5,36.3516 L940.5,62.3516 C940.5,72.3516 922.5,72.3516 922.5,72.3516 C922.5,72.3516 904.5,72.3516 904.5,62.3516 L904.5,36.3516 " fill="#D6EAF8" filter="url(#fl3m0gjnc660v)" style="stroke:#181818;stroke-width:1.5;"/><path d="M904.5,36.3516 C904.5,46.3516 922.5,46.3516 922.5,46.3516 C922.5,46.3516 940.5,46.3516 940.5,36.3516 " fill="none" style="stroke:#181818;stroke-width:1.5;"/><text fill="#000000" font-family="sans-serif" font-size="14" lengthAdjust="spacing" textLength="52" x="893.5" y="1019.7832">Base de</text><text fill="#000000" font-family="sans-serif" font-size="14" lengthAdjust="spacing" textLength="55" x="892" y="1037.3926">donn&#233;es</text><path d="M904.5,1050.4688 C904.5,1040.4688 922.5,1040.4688 922.5,1040.4688 C922.5,1040.4688 940.5,1040.4688 940.5,1050.4688 L940.5,1076.4688 C940.5,1086.4688 922.5,1086.4688 922.5,1086.4688 C922.5,1086.4688 904.5,1086.4688 904.5,1076.4688 L904.5,1050.4688 " fill="#D6EAF8" filter="url(#fl3m0gjnc660v)" style="stroke:#181818;stroke-width:1.5;"/><path d="M904.5,1050.4688 C904.5,1060.4688 922.5,1060.4688 922.5,1060.4688 C922.5,1060.4688 940.5,1060.4688 940.5,1050.4688 " fill="none" style="stroke:#181818;stroke-width:1.5;"/><rect fill="#85C1E9" filter="url(#fl3m0gjnc660v)" height="46.7031" rx="5" ry="5" style="stroke:#1A6DAF;stroke-width:0.5;" width="115" x="993" y="56.8672"/><text fill="#0A2540" font-family="sans-serif" font-size="13" lengthAdjust="spacing" textLength="101" x="1000" y="77.3623">Syst&#232;me Externe</text><text fill="#0A2540" font-family="sans-serif" font-size="13" lengthAdjust="spacing" textLength="44" x="1028.5" y="93.7139">(SMTP)</text><rect fill="#85C1E9" filter="url(#fl3m0gjnc660v)" height="46.7031" rx="5" ry="5" style="stroke:#1A6DAF;stroke-width:0.5;" width="115" x="993" y="1005.25"/><text fill="#0A2540" font-family="sans-serif" font-size="13" lengthAdjust="spacing" textLength="101" x="1000" y="1025.7451">Syst&#232;me Externe</text><text fill="#0A2540" font-family="sans-serif" font-size="13" lengthAdjust="spacing" textLength="44" x="1028.5" y="1042.0967">(SMTP)</text><rect fill="#E8F4FD" filter="url(#fl3m0gjnc660v)" height="30.3516" style="stroke:#1A6DAF;stroke-width:1.0;" width="10" x="420.5" y="239.9766"/><rect fill="#E8F4FD" filter="url(#fl3m0gjnc660v)" height="651.2188" style="stroke:#1A6DAF;stroke-width:1.0;" width="10" x="420.5" y="345.0313"/><rect fill="#D6EAF8" filter="url(#fl3m0gjnc660v)" height="512.4609" style="stroke:#1A6DAF;stroke-width:1.0;" width="10" x="666.5" y="483.7891"/><rect fill="#AED6F1" filter="url(#fl3m0gjnc660v)" height="30.3516" style="stroke:#1A6DAF;stroke-width:1.0;" width="10" x="917.5" y="601.8438"/><rect fill="#AED6F1" filter="url(#fl3m0gjnc660v)" height="30.3516" style="stroke:#1A6DAF;stroke-width:1.0;" width="10" x="917.5" y="704.25"/><rect fill="#D6EAF8" filter="url(#fl3m0gjnc660v)" height="30.3516" style="stroke:#1A6DAF;stroke-width:1.0;" width="10" x="1047" y="790.3047"/><path d="M7,127.5703 L7,143.5703 A5,5 0 0 0 12,148.5703 L1113,148.5703 A5,5 0 0 0 1118,143.5703 L1118,132.5703 L1108,122.5703 L12,122.5703 A5,5 0 0 0 7,127.5703 " fill="#E8F4FD" filter="url(#fl3m0gjnc660v)" style="stroke:#181818;stroke-width:0.5;"/><path d="M1108,122.5703 L1108,130.0703 A2.5,2.5 0 0 0 1110.5,132.5703 L1118,132.5703 L1108,122.5703 " fill="#E8F4FD" style="stroke:#181818;stroke-width:0.5;"/><text fill="#000000" font-family="sans-serif" font-size="13" font-weight="bold" lengthAdjust="spacing" textLength="469.4063" x="321.7969" y="141.0654">Flux d'Ajustement (Override) &#8212; Tra&#231;abilit&#233;, Motif Justificatif et Notification</text><rect fill="#EEEEEE" filter="url(#fl3m0gjnc660v)" height="3" rx="5" ry="5" style="stroke:#EEEEEE;stroke-width:1.0;" width="1171" x="0" y="178.0977"/><line style="stroke:#000000;stroke-width:1.0;" x1="0" x2="1171" y1="178.0977" y2="178.0977"/><line style="stroke:#000000;stroke-width:1.0;" x1="0" x2="1171" y1="181.0977" y2="181.0977"/><rect fill="#EEEEEE" filter="url(#fl3m0gjnc660v)" height="24.3516" rx="5" ry="5" style="stroke:#000000;stroke-width:2.0;" width="164" x="503.5" y="166.9219"/><text fill="#000000" font-family="sans-serif" font-size="13" font-weight="bold" lengthAdjust="spacing" textLength="146" x="509.5" y="184.417">Demande d'ajustement</text><polygon fill="#1A6DAF" points="408.5,235.9766,418.5,239.9766,408.5,243.9766,412.5,239.9766" style="stroke:#1A6DAF;stroke-width:1.0;"/><line style="stroke:#1A6DAF;stroke-width:2.0;" x1="73.5" x2="414.5" y1="239.9766" y2="239.9766"/><text fill="#000000" font-family="sans-serif" font-size="13" font-weight="bold" lengthAdjust="spacing" textLength="7" x="80.5" y="226.9443">1</text><text fill="#000000" font-family="sans-serif" font-size="13" lengthAdjust="spacing" textLength="158" x="91.5" y="218.7686">S&#233;lectionner un pointage et</text><text fill="#000000" font-family="sans-serif" font-size="13" lengthAdjust="spacing" textLength="115" x="91.5" y="235.1201">cliquer sur "Ajuster"</text><polygon fill="#1A6DAF" points="84.5,266.3281,74.5,270.3281,84.5,274.3281,80.5,270.3281" style="stroke:#1A6DAF;stroke-width:1.0;"/><line style="stroke:#1A6DAF;stroke-width:2.0;stroke-dasharray:2.0,2.0;" x1="78.5" x2="424.5" y1="270.3281" y2="270.3281"/><text fill="#000000" font-family="sans-serif" font-size="13" font-weight="bold" lengthAdjust="spacing" textLength="7" x="90.5" y="265.4717">2</text><text fill="#000000" font-family="sans-serif" font-size="13" lengthAdjust="spacing" textLength="312" x="101.5" y="265.4717">Afficher formulaire (Nouvelles heures, Motif obligatoire)</text><rect fill="#EEEEEE" filter="url(#fl3m0gjnc660v)" height="3" rx="5" ry="5" style="stroke:#EEEEEE;stroke-width:1.0;" width="1171" x="0" y="299.5039"/><line style="stroke:#000000;stroke-width:1.0;" x1="0" x2="1171" y1="299.5039" y2="299.5039"/><line style="stroke:#000000;stroke-width:1.0;" x1="0" x2="1171" y1="302.5039" y2="302.5039"/><rect fill="#EEEEEE" filter="url(#fl3m0gjnc660v)" height="24.3516" rx="5" ry="5" style="stroke:#000000;stroke-width:2.0;" width="142" x="514.5" y="288.3281"/><text fill="#000000" font-family="sans-serif" font-size="13" font-weight="bold" lengthAdjust="spacing" textLength="124" x="520.5" y="305.8232">Saisie et Validation</text><polygon fill="#1A6DAF" points="408.5,341.0313,418.5,345.0313,408.5,349.0313,412.5,345.0313" style="stroke:#1A6DAF;stroke-width:1.0;"/><line style="stroke:#1A6DAF;stroke-width:2.0;" x1="73.5" x2="414.5" y1="345.0313" y2="345.0313"/><text fill="#000000" font-family="sans-serif" font-size="13" font-weight="bold" lengthAdjust="spacing" textLength="7" x="80.5" y="340.1748">3</text><text fill="#000000" font-family="sans-serif" font-size="13" lengthAdjust="spacing" textLength="195" x="91.5" y="340.1748">Saisir les modifications et le motif</text><path d="M356,360.0313 L416,360.0313 L416,368.3828 L406,378.3828 L351,378.3828 L351,365.0313 A5,5 0 0 1 356,360.0313 " fill="#EEEEEE" style="stroke:#000000;stroke-width:1.5;"/><rect fill="none" height="78.0547" rx="5" ry="5" style="stroke:#000000;stroke-width:1.5;" width="291.5" x="351" y="360.0313"/><text fill="#000000" font-family="sans-serif" font-size="13" font-weight="bold" lengthAdjust="spacing" textLength="20" x="366" y="374.5264">opt</text><text fill="#000000" font-family="sans-serif" font-size="11" font-weight="bold" lengthAdjust="spacing" textLength="97" x="431" y="373.4502">[Validation locale]</text><line style="stroke:#1A6DAF;stroke-width:2.0;" x1="430.5" x2="472.5" y1="417.0859" y2="417.0859"/><line style="stroke:#1A6DAF;stroke-width:2.0;" x1="472.5" x2="472.5" y1="417.0859" y2="430.0859"/><line style="stroke:#1A6DAF;stroke-width:2.0;" x1="431.5" x2="472.5" y1="430.0859" y2="430.0859"/><polygon fill="#1A6DAF" points="441.5,426.0859,431.5,430.0859,441.5,434.0859,437.5,430.0859" style="stroke:#1A6DAF;stroke-width:1.0;"/><text fill="#000000" font-family="sans-serif" font-size="13" font-weight="bold" lengthAdjust="spacing" textLength="7" x="437.5" y="404.0537">4</text><text fill="#000000" font-family="sans-serif" font-size="13" lengthAdjust="spacing" textLength="182" x="448.5" y="395.8779">V&#233;rifier si le motif n'est pas vide</text><text fill="#000000" font-family="sans-serif" font-size="13" lengthAdjust="spacing" textLength="119" x="448.5" y="412.2295">et format des heures</text><polygon fill="#1A6DAF" points="654.5,479.7891,664.5,483.7891,654.5,487.7891,658.5,483.7891" style="stroke:#1A6DAF;stroke-width:1.0;"/><line style="stroke:#1A6DAF;stroke-width:2.0;" x1="430.5" x2="660.5" y1="483.7891" y2="483.7891"/><text fill="#000000" font-family="sans-serif" font-size="13" font-weight="bold" lengthAdjust="spacing" textLength="7" x="437.5" y="470.7568">5</text><text fill="#000000" font-family="sans-serif" font-size="13" lengthAdjust="spacing" textLength="190" x="448.5" y="462.5811">POST /api/pointages/{id}/override</text><text fill="#000000" font-family="sans-serif" font-size="13" lengthAdjust="spacing" textLength="132" x="448.5" y="478.9326">(Donn&#233;es, Token JWT)</text><rect fill="#EEEEEE" filter="url(#fl3m0gjnc660v)" height="3" rx="5" ry="5" style="stroke:#EEEEEE;stroke-width:1.0;" width="1171" x="0" y="512.9648"/><line style="stroke:#000000;stroke-width:1.0;" x1="0" x2="1171" y1="512.9648" y2="512.9648"/><line style="stroke:#000000;stroke-width:1.0;" x1="0" x2="1171" y1="515.9648" y2="515.9648"/><rect fill="#EEEEEE" filter="url(#fl3m0gjnc660v)" height="24.3516" rx="5" ry="5" style="stroke:#000000;stroke-width:2.0;" width="242" x="464.5" y="501.7891"/><text fill="#000000" font-family="sans-serif" font-size="13" font-weight="bold" lengthAdjust="spacing" textLength="224" x="470.5" y="519.2842">Traitement et Tra&#231;abilit&#233; (Backend)</text><line style="stroke:#1A6DAF;stroke-width:2.0;" x1="676.5" x2="718.5" y1="558.4922" y2="558.4922"/><line style="stroke:#1A6DAF;stroke-width:2.0;" x1="718.5" x2="718.5" y1="558.4922" y2="571.4922"/><line style="stroke:#1A6DAF;stroke-width:2.0;" x1="677.5" x2="718.5" y1="571.4922" y2="571.4922"/><polygon fill="#1A6DAF" points="687.5,567.4922,677.5,571.4922,687.5,575.4922,683.5,571.4922" style="stroke:#1A6DAF;stroke-width:1.0;"/><text fill="#000000" font-family="sans-serif" font-size="13" font-weight="bold" lengthAdjust="spacing" textLength="7" x="683.5" y="553.6357">6</text><text fill="#000000" font-family="sans-serif" font-size="13" lengthAdjust="spacing" textLength="192" x="694.5" y="553.6357">V&#233;rifier les droits (ROLE_ADMIN)</text><polygon fill="#1A6DAF" points="905.5,597.8438,915.5,601.8438,905.5,605.8438,909.5,601.8438" style="stroke:#1A6DAF;stroke-width:1.0;"/><line style="stroke:#1A6DAF;stroke-width:2.0;" x1="676.5" x2="911.5" y1="601.8438" y2="601.8438"/><text fill="#000000" font-family="sans-serif" font-size="13" font-weight="bold" lengthAdjust="spacing" textLength="7" x="683.5" y="596.9873">7</text><text fill="#000000" font-family="sans-serif" font-size="13" lengthAdjust="spacing" textLength="171" x="694.5" y="596.9873">R&#233;cup&#233;rer le pointage original</text><polygon fill="#1A6DAF" points="687.5,628.1953,677.5,632.1953,687.5,636.1953,683.5,632.1953" style="stroke:#1A6DAF;stroke-width:1.0;"/><line style="stroke:#1A6DAF;stroke-width:2.0;stroke-dasharray:2.0,2.0;" x1="681.5" x2="921.5" y1="632.1953" y2="632.1953"/><text fill="#000000" font-family="sans-serif" font-size="13" font-weight="bold" lengthAdjust="spacing" textLength="7" x="693.5" y="627.3389">8</text><text fill="#000000" font-family="sans-serif" font-size="13" lengthAdjust="spacing" textLength="122" x="704.5" y="627.3389">Donn&#233;es du pointage</text><path d="M20,647.1953 L76,647.1953 L76,655.5469 L66,665.5469 L15,665.5469 L15,652.1953 A5,5 0 0 1 20,647.1953 " fill="#EEEEEE" style="stroke:#000000;stroke-width:1.5;"/><rect fill="none" height="342.0547" rx="5" ry="5" style="stroke:#000000;stroke-width:1.5;" width="1146" x="15" y="647.1953"/><text fill="#000000" font-family="sans-serif" font-size="13" font-weight="bold" lengthAdjust="spacing" textLength="16" x="30" y="661.6904">alt</text><text fill="#000000" font-family="sans-serif" font-size="11" font-weight="bold" lengthAdjust="spacing" textLength="200" x="91" y="660.6143">[R&#244;le Administrateur et Motif fourni]</text><polygon fill="#1A6DAF" points="905.5,700.25,915.5,704.25,905.5,708.25,909.5,704.25" style="stroke:#1A6DAF;stroke-width:1.0;"/><line style="stroke:#1A6DAF;stroke-width:2.0;" x1="676.5" x2="911.5" y1="704.25" y2="704.25"/><text fill="#000000" font-family="sans-serif" font-size="13" font-weight="bold" lengthAdjust="spacing" textLength="7" x="683.5" y="691.2178">9</text><text fill="#000000" font-family="sans-serif" font-size="13" lengthAdjust="spacing" textLength="184" x="694.5" y="683.042">Enregistrer l'entit&#233; "Ajustement"</text><text fill="#000000" font-family="sans-serif" font-size="13" lengthAdjust="spacing" textLength="211" x="694.5" y="699.3936">(Anciennes heures, Nouvelles, Motif)</text><polygon fill="#1A6DAF" points="687.5,730.6016,677.5,734.6016,687.5,738.6016,683.5,734.6016" style="stroke:#1A6DAF;stroke-width:1.0;"/><line style="stroke:#1A6DAF;stroke-width:2.0;stroke-dasharray:2.0,2.0;" x1="681.5" x2="921.5" y1="734.6016" y2="734.6016"/><text fill="#000000" font-family="sans-serif" font-size="13" font-weight="bold" lengthAdjust="spacing" textLength="14" x="693.5" y="729.7451">10</text><text fill="#000000" font-family="sans-serif" font-size="13" lengthAdjust="spacing" textLength="44" x="711.5" y="729.7451">Succ&#232;s</text><path d="M590,749.6016 L651,749.6016 L651,757.9531 L641,767.9531 L585,767.9531 L585,754.6016 A5,5 0 0 1 590,749.6016 " fill="#EEEEEE" style="stroke:#000000;stroke-width:1.5;"/><rect fill="none" height="79.0547" rx="5" ry="5" style="stroke:#000000;stroke-width:1.5;" width="566" x="585" y="749.6016"/><text fill="#000000" font-family="sans-serif" font-size="13" font-weight="bold" lengthAdjust="spacing" textLength="21" x="600" y="764.0967">par</text><text fill="#000000" font-family="sans-serif" font-size="11" font-weight="bold" lengthAdjust="spacing" textLength="161" x="666" y="763.0205">[Envoi de l'alerte &#224; l'employ&#233;]</text><polygon fill="#1A6DAF" points="1035,786.3047,1045,790.3047,1035,794.3047,1039,790.3047" style="stroke:#1A6DAF;stroke-width:1.0;"/><line style="stroke:#1A6DAF;stroke-width:2.0;" x1="676.5" x2="1041" y1="790.3047" y2="790.3047"/><text fill="#000000" font-family="sans-serif" font-size="13" font-weight="bold" lengthAdjust="spacing" textLength="14" x="683.5" y="785.4482">11</text><text fill="#000000" font-family="sans-serif" font-size="13" lengthAdjust="spacing" textLength="169" x="701.5" y="785.4482">Envoyer notification par email</text><polygon fill="#1A6DAF" points="687.5,816.6563,677.5,820.6563,687.5,824.6563,683.5,820.6563" style="stroke:#1A6DAF;stroke-width:1.0;"/><line style="stroke:#1A6DAF;stroke-width:2.0;stroke-dasharray:2.0,2.0;" x1="681.5" x2="1051" y1="820.6563" y2="820.6563"/><text fill="#000000" font-family="sans-serif" font-size="13" font-weight="bold" lengthAdjust="spacing" textLength="14" x="693.5" y="815.7998">12</text><text fill="#000000" font-family="sans-serif" font-size="13" lengthAdjust="spacing" textLength="119" x="711.5" y="815.7998">Accus&#233; de r&#233;ception</text><polygon fill="#1A6DAF" points="441.5,854.0078,431.5,858.0078,441.5,862.0078,437.5,858.0078" style="stroke:#1A6DAF;stroke-width:1.0;"/><line style="stroke:#1A6DAF;stroke-width:2.0;stroke-dasharray:2.0,2.0;" x1="435.5" x2="665.5" y1="858.0078" y2="858.0078"/><text fill="#000000" font-family="sans-serif" font-size="13" font-weight="bold" lengthAdjust="spacing" textLength="14" x="447.5" y="853.1514">13</text><text fill="#000000" font-family="sans-serif" font-size="13" lengthAdjust="spacing" textLength="183" x="465.5" y="853.1514">200 OK &#8212; Ajustement appliqu&#233;</text><polygon fill="#1A6DAF" points="84.5,900.7109,74.5,904.7109,84.5,908.7109,80.5,904.7109" style="stroke:#1A6DAF;stroke-width:1.0;"/><line style="stroke:#1A6DAF;stroke-width:2.0;stroke-dasharray:2.0,2.0;" x1="78.5" x2="419.5" y1="904.7109" y2="904.7109"/><text fill="#000000" font-family="sans-serif" font-size="13" font-weight="bold" lengthAdjust="spacing" textLength="14" x="90.5" y="891.6787">14</text><text fill="#000000" font-family="sans-serif" font-size="13" lengthAdjust="spacing" textLength="164" x="108.5" y="883.5029">Afficher message de succ&#232;s</text><text fill="#000000" font-family="sans-serif" font-size="13" lengthAdjust="spacing" textLength="124" x="108.5" y="899.8545">et rafra&#238;chir le tableau</text><line style="stroke:#000000;stroke-width:1.0;stroke-dasharray:2.0,2.0;" x1="15" x2="1161" y1="913.7109" y2="913.7109"/><text fill="#000000" font-family="sans-serif" font-size="11" font-weight="bold" lengthAdjust="spacing" textLength="203" x="20" y="925.1299">[Acc&#232;s refus&#233; ou Donn&#233;es invalides]</text><polygon fill="#1A6DAF" points="441.5,946.8984,431.5,950.8984,441.5,954.8984,437.5,950.8984" style="stroke:#1A6DAF;stroke-width:1.0;"/><line style="stroke:#1A6DAF;stroke-width:2.0;stroke-dasharray:2.0,2.0;" x1="435.5" x2="665.5" y1="950.8984" y2="950.8984"/><text fill="#000000" font-family="sans-serif" font-size="13" font-weight="bold" lengthAdjust="spacing" textLength="14" x="447.5" y="946.042">15</text><text fill="#000000" font-family="sans-serif" font-size="13" lengthAdjust="spacing" textLength="194" x="465.5" y="946.042">403 Forbidden / 400 Bad Request</text><polygon fill="#1A6DAF" points="84.5,977.25,74.5,981.25,84.5,985.25,80.5,981.25" style="stroke:#1A6DAF;stroke-width:1.0;"/><line style="stroke:#1A6DAF;stroke-width:2.0;stroke-dasharray:2.0,2.0;" x1="78.5" x2="419.5" y1="981.25" y2="981.25"/><text fill="#000000" font-family="sans-serif" font-size="13" font-weight="bold" lengthAdjust="spacing" textLength="14" x="90.5" y="976.3936">16</text><text fill="#000000" font-family="sans-serif" font-size="13" lengthAdjust="spacing" textLength="146" x="108.5" y="976.3936">Afficher message d'erreur</text><!--SRC=[ZLLBRkD64Dtp50Lv8Gcm8Sa_U8on0SeIWSpu1qkOsHW8ckoMr37PpNGtDVOC1iWXSe3iCjfabHle9Zb9gfkaI5fM42qCarMlwbNLgw9-uY8bYYIWsQyP4n63RnxWprTAVhcIiLImD_1FHtwGluwCL4EfA5E5iJywEZf-LpEIw6ckP2Re3dGWXTd6NlCPk-Q2DMBNe1lxw_3Zi-0u67dEwPuemoEU4c5snQcxx0ZrogtErpyyEUw_vJ3XNnaCZd8Q8s98IFGsrz7fs0_EcZuxU9RsxUpEV2lD6wqO1YV1iBBl26rjEy8EvVCkb3MzIcWK4HhLmuGfNMfn2-ntpzELo1Q4oYzSp16RiPeXaK962oKJ1ZCIwxgf5APJv7J1eoV1j8R3celZ54abc891lsQeJUcUK6eJ7zNjoBXyVuWj89cH8aj2fZmlbC_Gke-9OJEfaDP7F_3R_XJ6DnFuvxVVuKRIB6RmMQedmnFMQiY7MA53owS95rnZdmpBL0k81c9VEP-quWQjG67ZcA2FekEBUHOJrNNkC_k-COS6p4uaHqrIPQiOIcboP8Wcs3iSdvrU3HoG5egoAFnBsQEWKeZrYca7e653e8qyanTjrZ-m2-Ddmx3DDk7Dz3xFf1EJmjxPoTLW_Cv3De2jypo1AWEvn8cualSBjw99xyFB8CwUWRRzNp9jM88QWiuTkYjEMTTrUAh8-ayIyfYRzMeV6sxu33wWDv_nYDW7PgoOYqSftlV2IqV0vlQyYmiOiOG8YiMsIPNcuW8dRJd1mMNHu7EOh5SnYsmKAw9CG2gvC6JECCcZY6AE8bIWCpjL5qgrF9moN-9eooaLjULF1nWypt8E_WmfBX1lfOJ3vOf1vrPcInR7JCC2nS5qMQ4COpudHg9JrwEicSHLDI5SSqiCFf6OKrVxZggifmAR995qqoXjiIZUn2RSLOOdqqQ2M4OaPauRHOLLda_hbSBejaDy4nX4csc3GjAmv5PkcDGsW1WKNrcrdPVdRG8wrPx3_Tra2ZsIybuv1jtxnkdtdYmKWW8S5UBTXwd49O0FdwVTgfPS_eMURTDGJRmG0F9eQ0iwnHvrNHSTjE9IrMRRI9NaHaFduUvw_BC_kldfjhi1u0QTmyDw5MKfOXoWaf5KVCu5YIkATk7yyUWq67Zuxq6LiQmCQBR1rvL0GnnrR33LtvYXUMHiSRcEPZ9JWkTtlS5mB1IRMu1bsCQ6k1wqgaLikIiKSOQxKAbpezT2gDtoqcrLuwvDew995aNh7pgtD0gnRyfxWyoMagC3qaAfAVHO_s4f9caiNzOhvrSlnvsKSmTxmM94xHQuUBZzFDwWDcdpIrIxTVRdNjOe-r6KQUmBib4uKfRQg1llMX4MwDux9LVqQkjnsE_3tKTtr6hdZgIfFIj5NVznDHBytba98HMTDzBjaY8pLF5VqS9jEE1rZnd9F8_XzzFIHpzGREQga5cbAYwMTgjnzzvcUzm_Wa2ga5EAQzN3vpuC2OK7-o7Mvd-pRUEgedQyVCLh7RCPjo_Rlm00]--></g></svg>