<?xml version="1.0" encoding="us-ascii" standalone="no"?><svg xmlns="http://www.w3.org/2000/svg" xmlns:xlink="http://www.w3.org/1999/xlink" contentStyleType="text/css" height="620px" preserveAspectRatio="none" style="width:848px;height:620px;background:#FFFFFF;" version="1.1" viewBox="0 0 848 620" width="848px" zoomAndPan="magnify"><defs><filter height="300%" id="fualfd9yjezwg" width="300%" x="-1" y="-1"><feGaussianBlur result="blurOut" stdDeviation="2.0"/><feColorMatrix in="blurOut" result="blurOut2" type="matrix" values="0 0 0 0 0 0 0 0 0 0 0 0 0 0 0 0 0 0 .4 0"/><feOffset dx="4.0" dy="4.0" in="blurOut2" result="blurOut3"/><feBlend in="SourceGraphic" in2="blurOut3" mode="normal"/></filter></defs><g><!--cluster Sous-module : Gestion des Utilisateurs et Acc?s--><g id="cluster_Sous-module : Gestion des Utilisateurs et Acc&#232;s"><rect fill="none" filter="url(#fualfd9yjezwg)" height="601" rx="2.5" ry="2.5" style="stroke:#1A6DAF;stroke-width:1.0;" width="571" x="265" y="7"/><text fill="#1A6DAF" font-family="sans-serif" font-size="15" font-weight="bold" lengthAdjust="spacing" textLength="340" x="380.5" y="24.5713">Sous-module : Gestion des Utilisateurs et Acc&#232;s</text></g><g id="elem_auth"><ellipse cx="706.4277" cy="322.0855" fill="#FFD6D6" filter="url(#fualfd9yjezwg)" rx="68.4277" ry="16.0855" style="stroke:#1A6DAF;stroke-width:0.5;"/><text fill="#0A2540" font-family="sans-serif" font-size="14" lengthAdjust="spacing" textLength="83" x="661.9277" y="326.6021">S'authentifier</text></g><g id="elem_uc_profil"><ellipse cx="407.0873" cy="486.1175" fill="#E8F4FD" filter="url(#fualfd9yjezwg)" rx="83.5873" ry="19.1175" style="stroke:#1A6DAF;stroke-width:0.5;"/><text fill="#0A2540" font-family="sans-serif" font-size="14" lengthAdjust="spacing" textLength="123" x="345.5873" y="489.846">Consulter son profil</text></g><g id="elem_uc_update_info"><ellipse cx="407.0541" cy="565.8108" fill="#E8F4FD" filter="url(#fualfd9yjezwg)" rx="114.5541" ry="25.3108" style="stroke:#1A6DAF;stroke-width:0.5;"/><text fill="#0A2540" font-family="sans-serif" font-size="14" lengthAdjust="spacing" textLength="193" x="310.5541" y="569.5393">Mettre &#224; jour ses coordonn&#233;es</text></g><g id="elem_uc_change_pwd"><ellipse cx="407.0397" cy="407.8079" fill="#E8F4FD" filter="url(#fualfd9yjezwg)" rx="104.5397" ry="23.3079" style="stroke:#1A6DAF;stroke-width:0.5;"/><text fill="#0A2540" font-family="sans-serif" font-size="14" lengthAdjust="spacing" textLength="171" x="321.5397" y="411.5365">Changer son mot de passe</text></g><g id="elem_uc_list"><ellipse cx="406.9339" cy="234.0868" fill="#E8F4FD" filter="url(#fualfd9yjezwg)" rx="115.9339" ry="25.5868" style="stroke:#1A6DAF;stroke-width:0.5;"/><text fill="#0A2540" font-family="sans-serif" font-size="14" lengthAdjust="spacing" textLength="196" x="308.9339" y="237.8153">Consulter la liste des employ&#233;s</text></g><g id="elem_uc_add"><ellipse cx="406.8449" cy="149.769" fill="#E8F4FD" filter="url(#fualfd9yjezwg)" rx="101.8449" ry="22.769" style="stroke:#1A6DAF;stroke-width:0.5;"/><text fill="#0A2540" font-family="sans-serif" font-size="14" lengthAdjust="spacing" textLength="165" x="324.3449" y="153.4975">Cr&#233;er un nouveau compte</text></g><g id="elem_uc_edit"><ellipse cx="406.9905" cy="67.8981" fill="#E8F4FD" filter="url(#fualfd9yjezwg)" rx="104.9905" ry="23.3981" style="stroke:#1A6DAF;stroke-width:0.5;"/><text fill="#0A2540" font-family="sans-serif" font-size="14" lengthAdjust="spacing" textLength="172" x="320.9905" y="71.6266">Modifier un compte existant</text></g><g id="elem_uc_deactivate"><ellipse cx="407.1384" cy="322.1277" fill="#E8F4FD" filter="url(#fualfd9yjezwg)" rx="126.1384" ry="27.6277" style="stroke:#1A6DAF;stroke-width:0.5;"/><text fill="#0A2540" font-family="sans-serif" font-size="14" lengthAdjust="spacing" textLength="218" x="298.1384" y="325.8562">D&#233;sactiver / Suspendre un compte</text></g><g id="elem_uc_roles"><ellipse cx="706.6359" cy="152.1272" fill="#E8F4FD" filter="url(#fualfd9yjezwg)" rx="113.6359" ry="25.1272" style="stroke:#1A6DAF;stroke-width:0.5;"/><text fill="#0A2540" font-family="sans-serif" font-size="14" lengthAdjust="spacing" textLength="191" x="611.1359" y="155.8557">Attribuer des r&#244;les (Privil&#232;ges)</text></g><g id="elem_uc_reset"><ellipse cx="706.2512" cy="67.8502" fill="#E8F4FD" filter="url(#fualfd9yjezwg)" rx="107.2512" ry="23.8502" style="stroke:#1A6DAF;stroke-width:0.5;"/><text fill="#0A2540" font-family="sans-serif" font-size="14" lengthAdjust="spacing" textLength="177" x="617.7512" y="71.5788">R&#233;initialiser le mot de passe</text></g><!--entity user--><g id="elem_user"><ellipse cx="38" cy="413.5" fill="#1A6DAF" filter="url(#fualfd9yjezwg)" rx="16" ry="16" style="stroke:#0D3349;stroke-width:0.5;"/><path d="M38,433.5 C42,433.5 45,433.5 49,429.5 C57,429.5 65,437.5 65,445.5 L65,449.5 C65,453.5 61,457.5 57,457.5 L19,457.5 C15,457.5 11,453.5 11,449.5 L11,445.5 C11,437.5 19,429.5 27,429.5 C31,433.5 34,433.5 38,433.5 " fill="#1A6DAF" filter="url(#fualfd9yjezwg)" style="stroke:#0D3349;stroke-width:0.5;"/><text fill="#0D3349" font-family="sans-serif" font-size="14" lengthAdjust="spacing" textLength="62" x="6" y="472.5332">Utilisateur</text><text fill="#0D3349" font-family="sans-serif" font-size="14" lengthAdjust="spacing" textLength="64" x="6" y="490.1426">(Employ&#233;)</text></g><!--entity admin--><g id="elem_admin"><ellipse cx="175.5" cy="211" fill="#1A6DAF" filter="url(#fualfd9yjezwg)" rx="16" ry="16" style="stroke:#0D3349;stroke-width:0.5;"/><path d="M175.5,231 C179.5,231 182.5,231 186.5,227 C194.5,227 202.5,235 202.5,243 L202.5,247 C202.5,251 198.5,255 194.5,255 L156.5,255 C152.5,255 148.5,251 148.5,247 L148.5,243 C148.5,235 156.5,227 164.5,227 C168.5,231 171.5,231 175.5,231 " fill="#1A6DAF" filter="url(#fualfd9yjezwg)" style="stroke:#0D3349;stroke-width:0.5;"/><text fill="#0D3349" font-family="sans-serif" font-size="14" lengthAdjust="spacing" textLength="91" x="130" y="270.0332">Administrateur</text></g><!--reverse link user to admin--><g id="link_user_admin"><path d="M88.01,408.5 C128.77,408.5 176,408.5 176,408.5 C176,408.5 176,325.08 176,273.6 " fill="none" id="user-backto-admin" style="stroke:#1A6DAF;stroke-width:1.0;"/><polygon fill="none" points="70.01,408.5,88.01,414.5,88.01,402.5,70.01,408.5" style="stroke:#1A6DAF;stroke-width:1.0;"/></g><!--link uc_profil to auth--><g id="link_uc_profil_auth"><path d="M490.57,486 C579.33,486 707,486 707,486 C707,486 707,385.29 707,344.02 " fill="none" id="uc_profil-to-auth" style="stroke:#1A6DAF;stroke-width:1.0;stroke-dasharray:7.0,7.0;"/><polygon fill="#1A6DAF" points="707,338.02,703,347.02,707,343.02,711,347.02,707,338.02" style="stroke:#1A6DAF;stroke-width:1.0;"/><text fill="#000000" font-family="sans-serif" font-size="13" lengthAdjust="spacing" textLength="55" x="616.77" y="500.4951">&#171;include&#187;</text></g><!--link uc_update_info to auth--><g id="link_uc_update_info_auth"><path d="M521.94,566 C618.56,566 741,566 741,566 C741,566 741,394.25 741,342.17 " fill="none" id="uc_update_info-to-auth" style="stroke:#1A6DAF;stroke-width:1.0;stroke-dasharray:7.0,7.0;"/><polygon fill="#1A6DAF" points="741,336.17,737,345.17,741,341.17,745,345.17,741,336.17" style="stroke:#1A6DAF;stroke-width:1.0;"/><text fill="#000000" font-family="sans-serif" font-size="13" lengthAdjust="spacing" textLength="55" x="685" y="575.1051">&#171;include&#187;</text></g><!--link uc_change_pwd to auth--><g id="link_uc_change_pwd_auth"><path d="M511.75,408 C586.19,408 673,408 673,408 C673,408 673,366.63 673,342.2 " fill="none" id="uc_change_pwd-to-auth" style="stroke:#1A6DAF;stroke-width:1.0;stroke-dasharray:7.0,7.0;"/><polygon fill="#1A6DAF" points="673,336.2,669,345.2,673,341.2,677,345.2,673,336.2" style="stroke:#1A6DAF;stroke-width:1.0;"/><text fill="#000000" font-family="sans-serif" font-size="13" lengthAdjust="spacing" textLength="55" x="572.27" y="422.4951">&#171;include&#187;</text></g><!--link uc_list to auth--><g id="link_uc_list_auth"><path d="M523.42,234 C607.75,234 707,234 707,234 C707,234 707,274.45 707,299.86 " fill="none" id="uc_list-to-auth" style="stroke:#1A6DAF;stroke-width:1.0;stroke-dasharray:7.0,7.0;"/><polygon fill="#1A6DAF" points="707,305.86,711,296.86,707,300.86,703,296.86,707,305.86" style="stroke:#1A6DAF;stroke-width:1.0;"/><text fill="#000000" font-family="sans-serif" font-size="13" lengthAdjust="spacing" textLength="55" x="595.14" y="248.4951">&#171;include&#187;</text></g><!--link uc_add to auth--><g id="link_uc_add_auth"><path d="M495.72,161.5 C526.29,161.5 553,161.5 553,161.5 C553,161.5 553,322 553,322 C553,322 590.96,322 631.83,322 " fill="none" id="uc_add-to-auth" style="stroke:#1A6DAF;stroke-width:1.0;stroke-dasharray:7.0,7.0;"/><polygon fill="#1A6DAF" points="637.83,322,628.83,318,632.83,322,628.83,326,637.83,322" style="stroke:#1A6DAF;stroke-width:1.0;"/><text fill="#000000" font-family="sans-serif" font-size="13" lengthAdjust="spacing" textLength="55" x="554" y="270.0151">&#171;include&#187;</text></g><!--link uc_edit to auth--><g id="link_uc_edit_auth"><path d="M512.13,68 C545.07,68 573,68 573,68 C573,68 573,314 573,314 C573,314 605.51,314 641.17,314 " fill="none" id="uc_edit-to-auth" style="stroke:#1A6DAF;stroke-width:1.0;stroke-dasharray:7.0,7.0;"/><polygon fill="#1A6DAF" points="647.17,314,638.17,310,642.17,314,638.17,318,647.17,314" style="stroke:#1A6DAF;stroke-width:1.0;"/><text fill="#000000" font-family="sans-serif" font-size="13" lengthAdjust="spacing" textLength="55" x="574" y="212.1451">&#171;include&#187;</text></g><!--link uc_deactivate to auth--><g id="link_uc_deactivate_auth"><path d="M527.95,330 C568.87,330 606.76,330 640.79,330 " fill="none" id="uc_deactivate-to-auth" style="stroke:#1A6DAF;stroke-width:1.0;stroke-dasharray:7.0,7.0;"/><polygon fill="#1A6DAF" points="646.79,330,637.79,326,641.79,330,637.79,334,646.79,330" style="stroke:#1A6DAF;stroke-width:1.0;"/><text fill="#000000" font-family="sans-serif" font-size="13" lengthAdjust="spacing" textLength="55" x="531.37" y="344.4951">&#171;include&#187;</text></g><!--reverse link uc_add to uc_roles--><g id="link_uc_add_uc_roles"><path d="M515.23,150 C542.26,150 565.59,150 593.17,150 " fill="none" id="uc_add-backto-uc_roles" style="stroke:#1A6DAF;stroke-width:1.0;stroke-dasharray:7.0,7.0;"/><polygon fill="#1A6DAF" points="509.23,150,518.23,154,514.23,150,518.23,146,509.23,150" style="stroke:#1A6DAF;stroke-width:1.0;"/><text fill="#000000" font-family="sans-serif" font-size="13" lengthAdjust="spacing" textLength="53" x="497.2" y="164.4951">&#171;extend&#187;</text></g><!--reverse link uc_edit to uc_roles--><g id="link_uc_edit_uc_roles"><path d="M504.16,79.75 C515.94,79.75 518,79.75 518,79.75 C518,79.75 518,138.5 518,138.5 C518,138.5 564.21,138.5 610.87,138.5 " fill="none" id="uc_edit-backto-uc_roles" style="stroke:#1A6DAF;stroke-width:1.0;stroke-dasharray:7.0,7.0;"/><polygon fill="#1A6DAF" points="498.16,79.75,507.16,83.75,503.16,79.75,507.16,75.75,498.16,79.75" style="stroke:#1A6DAF;stroke-width:1.0;"/><text fill="#000000" font-family="sans-serif" font-size="13" lengthAdjust="spacing" textLength="53" x="526.14" y="134.9951">&#171;extend&#187;</text></g><!--reverse link uc_edit to uc_reset--><g id="link_uc_edit_uc_reset"><path d="M504.08,56.25 C540.39,56.25 576.17,56.25 612.75,56.25 " fill="none" id="uc_edit-backto-uc_reset" style="stroke:#1A6DAF;stroke-width:1.0;stroke-dasharray:7.0,7.0;"/><polygon fill="#1A6DAF" points="498.08,56.25,507.08,60.25,503.08,56.25,507.08,52.25,498.08,56.25" style="stroke:#1A6DAF;stroke-width:1.0;"/><text fill="#000000" font-family="sans-serif" font-size="13" lengthAdjust="spacing" textLength="53" x="501.41" y="52.7451">&#171;extend&#187;</text></g><!--link user to uc_profil--><g id="link_user_uc_profil"><path d="M70.1,475.67 C129.28,475.67 250.83,475.67 330.9,475.67 " fill="none" id="user-to-uc_profil" style="stroke:#1A6DAF;stroke-width:1.0;"/><polygon fill="#1A6DAF" points="336.9,475.67,327.9,471.67,331.9,475.67,327.9,479.67,336.9,475.67" style="stroke:#1A6DAF;stroke-width:1.0;"/></g><!--link user to uc_update_info--><g id="link_user_uc_update_info"><path d="M70.14,484.33 C139.71,484.33 298,484.33 298,484.33 C298,484.33 298,531.73 298,552.17 " fill="none" id="user-to-uc_update_info" style="stroke:#1A6DAF;stroke-width:1.0;"/><polygon fill="#1A6DAF" points="298,558.17,302,549.17,298,553.17,294,549.17,298,558.17" style="stroke:#1A6DAF;stroke-width:1.0;"/></g><!--link user to uc_change_pwd--><g id="link_user_uc_change_pwd"><path d="M70.1,420 C124.54,420 230.86,420 310.83,420 " fill="none" id="user-to-uc_change_pwd" style="stroke:#1A6DAF;stroke-width:1.0;"/><polygon fill="#1A6DAF" points="316.83,420,307.83,416,311.83,420,307.83,424,316.83,420" style="stroke:#1A6DAF;stroke-width:1.0;"/></g><!--link admin to uc_list--><g id="link_admin_uc_list"><path d="M221.24,234 C241.4,234 260.1,234 284.82,234 " fill="none" id="admin-to-uc_list" style="stroke:#1A6DAF;stroke-width:1.0;"/><polygon fill="#1A6DAF" points="290.82,234,281.82,230,285.82,234,281.82,238,290.82,234" style="stroke:#1A6DAF;stroke-width:1.0;"/></g><!--link admin to uc_add--><g id="link_admin_uc_add"><path d="M191,194.46 C191,172.67 191,150 191,150 C191,150 242.86,150 298.69,150 " fill="none" id="admin-to-uc_add" style="stroke:#1A6DAF;stroke-width:1.0;"/><polygon fill="#1A6DAF" points="304.69,150,295.69,146,299.69,150,295.69,154,304.69,150" style="stroke:#1A6DAF;stroke-width:1.0;"/></g><!--link admin to uc_edit--><g id="link_admin_uc_edit"><path d="M161,194.24 C161,145.13 161,68 161,68 C161,68 229.1,68 295.96,68 " fill="none" id="admin-to-uc_edit" style="stroke:#1A6DAF;stroke-width:1.0;"/><polygon fill="#1A6DAF" points="301.96,68,292.96,64,296.96,68,292.96,72,301.96,68" style="stroke:#1A6DAF;stroke-width:1.0;"/></g><!--link admin to uc_deactivate--><g id="link_admin_uc_deactivate"><path d="M221.08,266.5 C251.52,266.5 286,266.5 286,266.5 C286,266.5 286,293.03 286,308.28 " fill="none" id="admin-to-uc_deactivate" style="stroke:#1A6DAF;stroke-width:1.0;"/><polygon fill="#1A6DAF" points="286,314.28,290,305.28,286,309.28,282,305.28,286,314.28" style="stroke:#1A6DAF;stroke-width:1.0;"/></g><!--SRC=[ZLJDRjim3BxdAOZqiFQGhbtJOYkA05xJx3HWMB3RW4Arc4IhB1dwQThzlCkExNrlu1SR9Tk9xAr5V354VYG_VXGbSU70QJ1YkNB0XS7S2Qq60tihLCaCAy2k6DThePRWZCV4KRBybYrnxXuaGWXaQYbJW1GAtKE9e8rRwJGdovqsy6C0zBsdD4kZlUANMf9rxpWxcsQpsgSDHzFOZwOd9-DtqJxJoltVEXVV4Ox7yLmpOskqki31hvI0jvWpYyzHk7ex6y-c_r98gAKKiZUduwDepOpHwowuKtSZKrlvcUnzHiumPIa5AjUltkDK2t2wFKSHRhJaWKaj_F2B4r9Ovj2Rhsh_gYYbVgYU3eR0R936jBYC5q89IzK3DBfPC56Yy8EHBqS_9tN8ODlRSAwz7HMQUpgSmmUquL81Hmj9PGle8Clpwj4EIOx8k9tBSFwAURUYTiL2O5EP3B0tcqtFfcSzzALMrak71YpLAOrU25atar_Nfox-8pfd4AhVy4rx2Y9YkQPHQAMg9xHjg2yvCRqMQg5xzLRKQ5EjqBGuIDjWBRQ1UVHVbsl-B579Q3-imwWADXFOL0wkNgGXPWQy0gNz7J9FZ8lIRKeopdizQXwr2o4r5F2UqZBbsXZaebTbIXnezkAEubx3tDiI5IUbDZdQK8uHHlBqEin8MN7ZAJuqPge_adxxduou4x9wNA8zQ5COJQvkyEVgYUwR4upw3nhXVzKrQD4rPTlvmY4zKkfmKj-ISxYu42gNdkDaqWAJQUw0texm9N2B3lFQ8IaDQGTK6CiEiEq8Tc4OrOP3NnAiOHA0UEzemjkaFLYaqi5jW648Bm7fjGdl0en6asGDKrEwNgaztPxcdQaTSIiwbd3hEuPufJkMvAR-1G00]--></g></svg>