<?xml version="1.0" encoding="us-ascii" standalone="no"?><svg xmlns="http://www.w3.org/2000/svg" xmlns:xlink="http://www.w3.org/1999/xlink" contentStyleType="text/css" height="1565px" preserveAspectRatio="none" style="width:1410px;height:1565px;background:#FFFFFF;" version="1.1" viewBox="0 0 1410 1565" width="1410px" zoomAndPan="magnify"><defs><filter height="300%" id="f1ovz150wnnran" width="300%" x="-1" y="-1"><feGaussianBlur result="blurOut" stdDeviation="2.0"/><feColorMatrix in="blurOut" result="blurOut2" type="matrix" values="0 0 0 0 0 0 0 0 0 0 0 0 0 0 0 0 0 0 .4 0"/><feOffset dx="4.0" dy="4.0" in="blurOut2" result="blurOut3"/><feBlend in="SourceGraphic" in2="blurOut3" mode="normal"/></filter></defs><g><text fill="#0A2540" font-family="sans-serif" font-size="14" font-weight="bold" lengthAdjust="spacing" textLength="432.4375" x="487.2813" y="34.5332">Plateforme KAFA'AT EMS &#8212; G&#233;n&#233;ration Massive des Factures</text><rect fill="none" height="22.6406" style="stroke:none;stroke-width:1.0;" width="1377" x="15" y="51.0645"/><rect fill="#EBF5FB" height="1496.9971" style="stroke:#EBF5FB;stroke-width:1.0;" width="525" x="15" y="51.0645"/><ellipse cx="148.5" cy="88.7051" fill="#222222" filter="url(#f1ovz150wnnran)" rx="10" ry="10" style="stroke:#222222;stroke-width:1.0;"/><rect fill="#E8F4FD" filter="url(#f1ovz150wnnran)" height="50.1875" rx="5" ry="5" style="stroke:#1A6DAF;stroke-width:2.0;" width="224" x="36.5" y="118.7051"/><text fill="#0A2540" font-family="sans-serif" font-size="12" lengthAdjust="spacing" textLength="204" x="46.5" y="141.1621">S&#233;lectionner la p&#233;riode de facturation</text><text fill="#0A2540" font-family="sans-serif" font-size="12" lengthAdjust="spacing" textLength="78" x="46.5" y="156.2559">(Mois / Ann&#233;e)</text><rect fill="#E8F4FD" filter="url(#f1ovz150wnnran)" height="35.0938" rx="5" ry="5" style="stroke:#1A6DAF;stroke-width:2.0;" width="255" x="21" y="188.8926"/><text fill="#0A2540" font-family="sans-serif" font-size="12" lengthAdjust="spacing" textLength="235" x="31" y="211.3496">Cliquer sur "Lancer la g&#233;n&#233;ration massive"</text><rect fill="#AED6F1" filter="url(#f1ovz150wnnran)" height="50.1875" rx="5" ry="5" style="stroke:#1A6DAF;stroke-width:2.0;" width="232" x="286" y="1305.7334"/><text fill="#0A2540" font-family="sans-serif" font-size="12" lengthAdjust="spacing" textLength="212" x="296" y="1328.1904">Afficher le tableau de bord de synth&#232;se</text><text fill="#0A2540" font-family="sans-serif" font-size="12" lengthAdjust="spacing" textLength="188" x="296" y="1343.2842">(Nb factures, Total CA, Anomalies)</text><rect fill="#555555" filter="url(#f1ovz150wnnran)" height="6" rx="2.5" ry="2.5" style="stroke:#555555;stroke-width:1.0;" width="438.25" x="91.75" y="1500.0615"/><line style="stroke:#000000;stroke-width:1.5;" x1="15" x2="15" y1="51.0645" y2="1548.0615"/><rect fill="#E8F4FD" height="1496.9971" style="stroke:#E8F4FD;stroke-width:1.0;" width="850.5" x="540" y="51.0645"/><rect fill="#E8F4FD" filter="url(#f1ovz150wnnran)" height="50.1875" rx="5" ry="5" style="stroke:#1A6DAF;stroke-width:2.0;" width="238" x="780.75" y="243.9863"/><text fill="#0A2540" font-family="sans-serif" font-size="12" lengthAdjust="spacing" textLength="141" x="790.75" y="266.4434">Contr&#244;ler les habilitations</text><text fill="#0A2540" font-family="sans-serif" font-size="12" lengthAdjust="spacing" textLength="218" x="790.75" y="281.5371">(V&#233;rification Token JWT / ROLE_ADMIN)</text><rect fill="#E8F4FD" filter="url(#f1ovz150wnnran)" height="50.1875" rx="5" ry="5" style="stroke:#1A6DAF;stroke-width:2.0;" width="212" x="793.75" y="314.1738"/><text fill="#0A2540" font-family="sans-serif" font-size="12" lengthAdjust="spacing" textLength="192" x="803.75" y="336.6309">Requ&#234;te BD: Extraire les pointages</text><text fill="#0A2540" font-family="sans-serif" font-size="12" lengthAdjust="spacing" textLength="184" x="803.75" y="351.7246">statut APPROUVE pour la p&#233;riode</text><polygon fill="#D6EAF8" filter="url(#f1ovz150wnnran)" points="851.75,384.3613,947.75,384.3613,959.75,396.3613,947.75,408.3613,851.75,408.3613,839.75,396.3613,851.75,384.3613" style="stroke:#1A6DAF;stroke-width:2.0;"/><text fill="#0A2540" font-family="sans-serif" font-size="11" lengthAdjust="spacing" textLength="96" x="851.75" y="400.8623">Pointages trouv&#233;s ?</text><text fill="#0A2540" font-family="sans-serif" font-size="11" lengthAdjust="spacing" textLength="19" x="820.75" y="393.9443">Non</text><text fill="#0A2540" font-family="sans-serif" font-size="11" lengthAdjust="spacing" textLength="16" x="959.75" y="393.9443">Oui</text><rect fill="#FFCCCC" filter="url(#f1ovz150wnnran)" height="50.1875" rx="5" ry="5" style="stroke:#1A6DAF;stroke-width:2.0;" width="265" x="546" y="428.3613"/><text fill="#0A2540" font-family="sans-serif" font-size="12" lengthAdjust="spacing" textLength="138" x="556" y="450.8184">Afficher un avertissement</text><text fill="#0A2540" font-family="sans-serif" font-size="12" lengthAdjust="spacing" textLength="245" x="556" y="465.9121">Aucune donn&#233;e facturable pour cette p&#233;riode</text><rect fill="#AED6F1" filter="url(#f1ovz150wnnran)" height="35.0938" rx="5" ry="5" style="stroke:#1A6DAF;stroke-width:2.0;" width="205" x="1018.5" y="428.3613"/><text fill="#0A2540" font-family="sans-serif" font-size="12" lengthAdjust="spacing" textLength="185" x="1028.5" y="450.8184">Initialiser le lot (Batch) de factures</text><rect fill="#E8F4FD" filter="url(#f1ovz150wnnran)" height="35.0938" rx="5" ry="5" style="stroke:#1A6DAF;stroke-width:2.0;" width="217" x="1012.5" y="555.374"/><text fill="#0A2540" font-family="sans-serif" font-size="12" lengthAdjust="spacing" textLength="197" x="1022.5" y="577.8311">Agr&#233;ger le total des heures valid&#233;es</text><polygon fill="#D6EAF8" filter="url(#f1ovz150wnnran)" points="1007.5,610.4678,1234.5,610.4678,1246.5,622.4678,1234.5,634.4678,1007.5,634.4678,995.5,622.4678,1007.5,610.4678" style="stroke:#1A6DAF;stroke-width:2.0;"/><text fill="#0A2540" font-family="sans-serif" font-size="11" lengthAdjust="spacing" textLength="227" x="1007.5" y="626.9688">Employ&#233; rattach&#233; &#224; un Groupe de Facturation ?</text><text fill="#0A2540" font-family="sans-serif" font-size="11" lengthAdjust="spacing" textLength="16" x="979.5" y="620.0508">Oui</text><text fill="#0A2540" font-family="sans-serif" font-size="11" lengthAdjust="spacing" textLength="19" x="1246.5" y="620.0508">Non</text><rect fill="#E8F4FD" filter="url(#f1ovz150wnnran)" height="50.1875" rx="5" ry="5" style="stroke:#1A6DAF;stroke-width:2.0;" width="222" x="874.5" y="644.4678"/><text fill="#0A2540" font-family="sans-serif" font-size="12" lengthAdjust="spacing" textLength="202" x="884.5" y="666.9248">R&#233;cup&#233;rer les param&#232;tres financiers</text><text fill="#0A2540" font-family="sans-serif" font-size="12" lengthAdjust="spacing" textLength="130" x="884.5" y="682.0186">(TJM, Devise, Taux TVA)</text><rect fill="#E8F4FD" filter="url(#f1ovz150wnnran)" height="50.1875" rx="5" ry="5" style="stroke:#1A6DAF;stroke-width:2.0;" width="194" x="888.5" y="714.6553"/><text fill="#0A2540" font-family="sans-serif" font-size="12" lengthAdjust="spacing" textLength="124" x="898.5" y="737.1123">Calculer le Montant HT</text><text fill="#0A2540" font-family="sans-serif" font-size="12" lengthAdjust="spacing" textLength="174" x="898.5" y="752.2061">Montant = Heures Totales x TJM</text><rect fill="#E8F4FD" filter="url(#f1ovz150wnnran)" height="50.1875" rx="5" ry="5" style="stroke:#1A6DAF;stroke-width:2.0;" width="151" x="910" y="784.8428"/><text fill="#0A2540" font-family="sans-serif" font-size="12" lengthAdjust="spacing" textLength="131" x="920" y="807.2998">Calculer le Montant TTC</text><text fill="#0A2540" font-family="sans-serif" font-size="12" lengthAdjust="spacing" textLength="121" x="920" y="822.3936">TTC = HT + (HT x TVA)</text><rect fill="#D6EAF8" filter="url(#f1ovz150wnnran)" height="50.1875" rx="5" ry="5" style="stroke:#1A6DAF;stroke-width:2.0;" width="215" x="878" y="855.0303"/><text fill="#0A2540" font-family="sans-serif" font-size="12" lengthAdjust="spacing" textLength="164" x="888" y="877.4873">G&#233;n&#233;rer le flux binaire du PDF</text><text fill="#0A2540" font-family="sans-serif" font-size="12" lengthAdjust="spacing" textLength="195" x="888" y="892.5811">(Moteur JasperReports + Template)</text><rect fill="#E8F4FD" filter="url(#f1ovz150wnnran)" height="35.0938" rx="5" ry="5" style="stroke:#1A6DAF;stroke-width:2.0;" width="241" x="865" y="925.2178"/><text fill="#0A2540" font-family="sans-serif" font-size="12" lengthAdjust="spacing" textLength="221" x="875" y="947.6748">Lier l'URL du document &#224; l'entit&#233; Facture</text><rect fill="#E8F4FD" filter="url(#f1ovz150wnnran)" height="35.0938" rx="5" ry="5" style="stroke:#1A6DAF;stroke-width:2.0;" width="204" x="883.5" y="980.3115"/><text fill="#0A2540" font-family="sans-serif" font-size="12" lengthAdjust="spacing" textLength="184" x="893.5" y="1002.7686">Ajouter la facture au lot d'insertion</text><rect fill="#FFCCCC" filter="url(#f1ovz150wnnran)" height="50.1875" rx="5" ry="5" style="stroke:#1A6DAF;stroke-width:2.0;" width="187" x="1163" y="644.4678"/><text fill="#0A2540" font-family="sans-serif" font-size="12" lengthAdjust="spacing" textLength="167" x="1173" y="666.9248">G&#233;n&#233;rer une alerte d'anomalie</text><text fill="#0A2540" font-family="sans-serif" font-size="12" lengthAdjust="spacing" textLength="165" x="1173" y="682.0186">Configuration TJM manquante</text><rect fill="#E8F4FD" filter="url(#f1ovz150wnnran)" height="50.1875" rx="5" ry="5" style="stroke:#1A6DAF;stroke-width:2.0;" width="188" x="1162.5" y="714.6553"/><text fill="#0A2540" font-family="sans-serif" font-size="12" lengthAdjust="spacing" textLength="168" x="1172.5" y="737.1123">Ignorer cet employ&#233; pour ce lot</text><text fill="#0A2540" font-family="sans-serif" font-size="12" lengthAdjust="spacing" textLength="111" x="1172.5" y="752.2061">et passer au suivant</text><polygon fill="#D6EAF8" filter="url(#f1ovz150wnnran)" points="1121,1021.4053,1133,1033.4053,1121,1045.4053,1109,1033.4053,1121,1021.4053" style="stroke:#1A6DAF;stroke-width:2.0;"/><polygon fill="#D6EAF8" filter="url(#f1ovz150wnnran)" points="1041,498.4551,1201,498.4551,1213,510.4551,1201,522.4551,1041,522.4551,1029,510.4551,1041,498.4551" style="stroke:#1A6DAF;stroke-width:2.0;"/><text fill="#0A2540" font-family="sans-serif" font-size="11" lengthAdjust="spacing" textLength="78" x="1125" y="533.874">Employ&#233; suivant</text><text fill="#0A2540" font-family="sans-serif" font-size="11" lengthAdjust="spacing" textLength="160" x="1041" y="514.9561">It&#233;ration sur la liste des employ&#233;s</text><text fill="#0A2540" font-family="sans-serif" font-size="11" lengthAdjust="spacing" textLength="64" x="965" y="508.0381">Liste &#233;puis&#233;e</text><rect fill="#AED6F1" filter="url(#f1ovz150wnnran)" height="50.1875" rx="5" ry="5" style="stroke:#1A6DAF;stroke-width:2.0;" width="258" x="992" y="1087.4053"/><text fill="#0A2540" font-family="sans-serif" font-size="12" lengthAdjust="spacing" textLength="238" x="1002" y="1109.8623">Ex&#233;cuter l'insertion en masse (Batch Insert)</text><text fill="#0A2540" font-family="sans-serif" font-size="12" lengthAdjust="spacing" textLength="213" x="1002" y="1124.9561">des factures dans la Base de donn&#233;es</text><rect fill="#555555" filter="url(#f1ovz150wnnran)" height="6" rx="2.5" ry="2.5" style="stroke:#555555;stroke-width:1.0;" width="537.5" x="843" y="1157.5928"/><rect fill="#E8F4FD" filter="url(#f1ovz150wnnran)" height="50.1875" rx="5" ry="5" style="stroke:#1A6DAF;stroke-width:2.0;" width="228" x="883" y="1183.5928"/><text fill="#0A2540" font-family="sans-serif" font-size="12" lengthAdjust="spacing" textLength="208" x="893" y="1206.0498">D&#233;l&#233;guer &#224; un Processus Asynchrone</text><text fill="#0A2540" font-family="sans-serif" font-size="12" lengthAdjust="spacing" textLength="93" x="893" y="1221.1436">(Thread / Queue)</text><rect fill="#E8F4FD" filter="url(#f1ovz150wnnran)" height="35.0938" rx="5" ry="5" style="stroke:#1A6DAF;stroke-width:2.0;" width="232" x="881" y="1297.7803"/><text fill="#0A2540" font-family="sans-serif" font-size="12" lengthAdjust="spacing" textLength="212" x="891" y="1320.2373">Construire l'email (Objet, Corps HTML)</text><rect fill="#E8F4FD" filter="url(#f1ovz150wnnran)" height="35.0938" rx="5" ry="5" style="stroke:#1A6DAF;stroke-width:2.0;" width="223" x="885.5" y="1367.874"/><text fill="#0A2540" font-family="sans-serif" font-size="12" lengthAdjust="spacing" textLength="203" x="895.5" y="1390.3311">Attacher le fichier PDF en pi&#232;ce jointe</text><rect fill="#D6EAF8" filter="url(#f1ovz150wnnran)" height="35.0938" rx="5" ry="5" style="stroke:#1A6DAF;stroke-width:2.0;" width="201" x="896.5" y="1422.9678"/><text fill="#0A2540" font-family="sans-serif" font-size="12" lengthAdjust="spacing" textLength="181" x="906.5" y="1445.4248">Envoyer via Serveur SMTP distant</text><polygon fill="#D6EAF8" filter="url(#f1ovz150wnnran)" points="926,1253.7803,1068,1253.7803,1080,1265.7803,1068,1277.7803,926,1277.7803,914,1265.7803,926,1253.7803" style="stroke:#1A6DAF;stroke-width:2.0;"/><text fill="#0A2540" font-family="sans-serif" font-size="11" lengthAdjust="spacing" textLength="142" x="926" y="1270.2813">Pour chaque facture g&#233;n&#233;r&#233;e</text><ellipse cx="899.75" cy="1537.0615" fill="none" filter="url(#f1ovz150wnnran)" rx="11" ry="11" style="stroke:#222222;stroke-width:1.0;"/><ellipse cx="899.75" cy="1537.0615" fill="#222222" rx="6" ry="6" style="stroke:#222222;stroke-width:1.0;"/><line style="stroke:#000000;stroke-width:1.5;" x1="540" x2="540" y1="51.0645" y2="1548.0615"/><line style="stroke:#000000;stroke-width:1.5;" x1="1390.5" x2="1390.5" y1="51.0645" y2="1548.0615"/><line style="stroke:#1A6DAF;stroke-width:2.0;" x1="148.5" x2="148.5" y1="98.7051" y2="118.7051"/><polygon fill="#1A6DAF" points="144.5,108.7051,148.5,118.7051,152.5,108.7051,148.5,112.7051" style="stroke:#1A6DAF;stroke-width:1.0;"/><line style="stroke:#1A6DAF;stroke-width:2.0;" x1="148.5" x2="148.5" y1="168.8926" y2="188.8926"/><polygon fill="#1A6DAF" points="144.5,178.8926,148.5,188.8926,152.5,178.8926,148.5,182.8926" style="stroke:#1A6DAF;stroke-width:1.0;"/><line style="stroke:#1A6DAF;stroke-width:2.0;" x1="402" x2="402" y1="1355.9209" y2="1500.0615"/><polygon fill="#1A6DAF" points="398,1490.0615,402,1500.0615,406,1490.0615,402,1494.0615" style="stroke:#1A6DAF;stroke-width:1.0;"/><line style="stroke:#1A6DAF;stroke-width:2.0;" x1="899.75" x2="899.75" y1="294.1738" y2="314.1738"/><polygon fill="#1A6DAF" points="895.75,304.1738,899.75,314.1738,903.75,304.1738,899.75,308.1738" style="stroke:#1A6DAF;stroke-width:1.0;"/><line style="stroke:#1A6DAF;stroke-width:2.0;" x1="985.5" x2="985.5" y1="694.6553" y2="714.6553"/><polygon fill="#1A6DAF" points="981.5,704.6553,985.5,714.6553,989.5,704.6553,985.5,708.6553" style="stroke:#1A6DAF;stroke-width:1.0;"/><line style="stroke:#1A6DAF;stroke-width:2.0;" x1="985.5" x2="985.5" y1="764.8428" y2="784.8428"/><polygon fill="#1A6DAF" points="981.5,774.8428,985.5,784.8428,989.5,774.8428,985.5,778.8428" style="stroke:#1A6DAF;stroke-width:1.0;"/><line style="stroke:#1A6DAF;stroke-width:2.0;" x1="985.5" x2="985.5" y1="835.0303" y2="855.0303"/><polygon fill="#1A6DAF" points="981.5,845.0303,985.5,855.0303,989.5,845.0303,985.5,849.0303" style="stroke:#1A6DAF;stroke-width:1.0;"/><line style="stroke:#1A6DAF;stroke-width:2.0;" x1="985.5" x2="985.5" y1="905.2178" y2="925.2178"/><polygon fill="#1A6DAF" points="981.5,915.2178,985.5,925.2178,989.5,915.2178,985.5,919.2178" style="stroke:#1A6DAF;stroke-width:1.0;"/><line style="stroke:#1A6DAF;stroke-width:2.0;" x1="985.5" x2="985.5" y1="960.3115" y2="980.3115"/><polygon fill="#1A6DAF" points="981.5,970.3115,985.5,980.3115,989.5,970.3115,985.5,974.3115" style="stroke:#1A6DAF;stroke-width:1.0;"/><line style="stroke:#1A6DAF;stroke-width:2.0;" x1="1256.5" x2="1256.5" y1="694.6553" y2="714.6553"/><polygon fill="#1A6DAF" points="1252.5,704.6553,1256.5,714.6553,1260.5,704.6553,1256.5,708.6553" style="stroke:#1A6DAF;stroke-width:1.0;"/><line style="stroke:#1A6DAF;stroke-width:2.0;" x1="995.5" x2="985.5" y1="622.4678" y2="622.4678"/><line style="stroke:#1A6DAF;stroke-width:2.0;" x1="985.5" x2="985.5" y1="622.4678" y2="644.4678"/><polygon fill="#1A6DAF" points="981.5,634.4678,985.5,644.4678,989.5,634.4678,985.5,638.4678" style="stroke:#1A6DAF;stroke-width:1.0;"/><line style="stroke:#1A6DAF;stroke-width:2.0;" x1="1246.5" x2="1256.5" y1="622.4678" y2="622.4678"/><line style="stroke:#1A6DAF;stroke-width:2.0;" x1="1256.5" x2="1256.5" y1="622.4678" y2="644.4678"/><polygon fill="#1A6DAF" points="1252.5,634.4678,1256.5,644.4678,1260.5,634.4678,1256.5,638.4678" style="stroke:#1A6DAF;stroke-width:1.0;"/><line style="stroke:#1A6DAF;stroke-width:2.0;" x1="985.5" x2="985.5" y1="1015.4053" y2="1033.4053"/><line style="stroke:#1A6DAF;stroke-width:2.0;" x1="985.5" x2="1109" y1="1033.4053" y2="1033.4053"/><polygon fill="#1A6DAF" points="1099,1029.4053,1109,1033.4053,1099,1037.4053,1103,1033.4053" style="stroke:#1A6DAF;stroke-width:1.0;"/><line style="stroke:#1A6DAF;stroke-width:2.0;" x1="1256.5" x2="1256.5" y1="764.8428" y2="1033.4053"/><line style="stroke:#1A6DAF;stroke-width:2.0;" x1="1256.5" x2="1133" y1="1033.4053" y2="1033.4053"/><polygon fill="#1A6DAF" points="1143,1029.4053,1133,1033.4053,1143,1037.4053,1139,1033.4053" style="stroke:#1A6DAF;stroke-width:1.0;"/><line style="stroke:#1A6DAF;stroke-width:2.0;" x1="1121" x2="1121" y1="590.4678" y2="610.4678"/><polygon fill="#1A6DAF" points="1117,600.4678,1121,610.4678,1125,600.4678,1121,604.4678" style="stroke:#1A6DAF;stroke-width:1.0;"/><line style="stroke:#1A6DAF;stroke-width:2.0;" x1="1121" x2="1121" y1="522.4551" y2="555.374"/><polygon fill="#1A6DAF" points="1117,545.374,1121,555.374,1125,545.374,1121,549.374" style="stroke:#1A6DAF;stroke-width:1.0;"/><line style="stroke:#1A6DAF;stroke-width:2.0;" x1="1121" x2="1121" y1="1045.4053" y2="1055.4053"/><line style="stroke:#1A6DAF;stroke-width:2.0;" x1="1121" x2="1364.5" y1="1055.4053" y2="1055.4053"/><polygon fill="#1A6DAF" points="1360.5,791.4717,1364.5,781.4717,1368.5,791.4717,1364.5,787.4717" style="stroke:#1A6DAF;stroke-width:2.0;"/><line style="stroke:#1A6DAF;stroke-width:2.0;" x1="1364.5" x2="1364.5" y1="510.4551" y2="1055.4053"/><line style="stroke:#1A6DAF;stroke-width:2.0;" x1="1364.5" x2="1213" y1="510.4551" y2="510.4551"/><polygon fill="#1A6DAF" points="1223,506.4551,1213,510.4551,1223,514.4551,1219,510.4551" style="stroke:#1A6DAF;stroke-width:1.0;"/><line style="stroke:#1A6DAF;stroke-width:2.0;" x1="1029" x2="843" y1="510.4551" y2="510.4551"/><polygon fill="#1A6DAF" points="839,777.4717,843,787.4717,847,777.4717,843,781.4717" style="stroke:#1A6DAF;stroke-width:2.0;"/><line style="stroke:#1A6DAF;stroke-width:2.0;" x1="843" x2="843" y1="510.4551" y2="1067.4053"/><line style="stroke:#1A6DAF;stroke-width:2.0;" x1="843" x2="1121" y1="1067.4053" y2="1067.4053"/><line style="stroke:#1A6DAF;stroke-width:2.0;" x1="1121" x2="1121" y1="1067.4053" y2="1087.4053"/><polygon fill="#1A6DAF" points="1117,1077.4053,1121,1087.4053,1125,1077.4053,1121,1081.4053" style="stroke:#1A6DAF;stroke-width:1.0;"/><line style="stroke:#1A6DAF;stroke-width:2.0;" x1="1121" x2="1121" y1="463.4551" y2="498.4551"/><polygon fill="#1A6DAF" points="1117,488.4551,1121,498.4551,1125,488.4551,1121,492.4551" style="stroke:#1A6DAF;stroke-width:1.0;"/><line style="stroke:#1A6DAF;stroke-width:2.0;" x1="997" x2="997" y1="1332.874" y2="1367.874"/><polygon fill="#1A6DAF" points="993,1357.874,997,1367.874,1001,1357.874,997,1361.874" style="stroke:#1A6DAF;stroke-width:1.0;"/><line style="stroke:#1A6DAF;stroke-width:2.0;" x1="997" x2="997" y1="1402.9678" y2="1422.9678"/><polygon fill="#1A6DAF" points="993,1412.9678,997,1422.9678,1001,1412.9678,997,1416.9678" style="stroke:#1A6DAF;stroke-width:1.0;"/><line style="stroke:#1A6DAF;stroke-width:2.0;" x1="997" x2="997" y1="1277.7803" y2="1297.7803"/><polygon fill="#1A6DAF" points="993,1287.7803,997,1297.7803,1001,1287.7803,997,1291.7803" style="stroke:#1A6DAF;stroke-width:1.0;"/><line style="stroke:#1A6DAF;stroke-width:2.0;" x1="997" x2="997" y1="1458.0615" y2="1468.0615"/><line style="stroke:#1A6DAF;stroke-width:2.0;" x1="997" x2="1125" y1="1468.0615" y2="1468.0615"/><polygon fill="#1A6DAF" points="1121,1383.4209,1125,1373.4209,1129,1383.4209,1125,1379.4209" style="stroke:#1A6DAF;stroke-width:2.0;"/><line style="stroke:#1A6DAF;stroke-width:2.0;" x1="1125" x2="1125" y1="1265.7803" y2="1468.0615"/><line style="stroke:#1A6DAF;stroke-width:2.0;" x1="1125" x2="1080" y1="1265.7803" y2="1265.7803"/><polygon fill="#1A6DAF" points="1090,1261.7803,1080,1265.7803,1090,1269.7803,1086,1265.7803" style="stroke:#1A6DAF;stroke-width:1.0;"/><line style="stroke:#1A6DAF;stroke-width:2.0;" x1="914" x2="869" y1="1265.7803" y2="1265.7803"/><polygon fill="#1A6DAF" points="865,1372.4209,869,1382.4209,873,1372.4209,869,1376.4209" style="stroke:#1A6DAF;stroke-width:2.0;"/><line style="stroke:#1A6DAF;stroke-width:2.0;" x1="869" x2="869" y1="1265.7803" y2="1486.0615"/><line style="stroke:#1A6DAF;stroke-width:2.0;" x1="869" x2="245.75" y1="1486.0615" y2="1486.0615"/><line style="stroke:#1A6DAF;stroke-width:2.0;" x1="245.75" x2="245.75" y1="1486.0615" y2="1500.0615"/><polygon fill="#1A6DAF" points="241.75,1490.0615,245.75,1500.0615,249.75,1490.0615,245.75,1494.0615" style="stroke:#1A6DAF;stroke-width:1.0;"/><line style="stroke:#1A6DAF;stroke-width:2.0;" x1="997" x2="997" y1="1233.7803" y2="1253.7803"/><polygon fill="#1A6DAF" points="993,1243.7803,997,1253.7803,1001,1243.7803,997,1247.7803" style="stroke:#1A6DAF;stroke-width:1.0;"/><line style="stroke:#1A6DAF;stroke-width:2.0;" x1="997" x2="997" y1="1163.5928" y2="1183.5928"/><polygon fill="#1A6DAF" points="993,1173.5928,997,1183.5928,1001,1173.5928,997,1177.5928" style="stroke:#1A6DAF;stroke-width:1.0;"/><line style="stroke:#1A6DAF;stroke-width:2.0;" x1="1121" x2="1121" y1="1137.5928" y2="1157.5928"/><polygon fill="#1A6DAF" points="1117,1147.5928,1121,1157.5928,1125,1147.5928,1121,1151.5928" style="stroke:#1A6DAF;stroke-width:1.0;"/><line style="stroke:#1A6DAF;stroke-width:2.0;" x1="839.75" x2="678.5" y1="396.3613" y2="396.3613"/><line style="stroke:#1A6DAF;stroke-width:2.0;" x1="678.5" x2="678.5" y1="396.3613" y2="428.3613"/><polygon fill="#1A6DAF" points="674.5,418.3613,678.5,428.3613,682.5,418.3613,678.5,422.3613" style="stroke:#1A6DAF;stroke-width:1.0;"/><line style="stroke:#1A6DAF;stroke-width:2.0;" x1="959.75" x2="1121" y1="396.3613" y2="396.3613"/><line style="stroke:#1A6DAF;stroke-width:2.0;" x1="1121" x2="1121" y1="396.3613" y2="428.3613"/><polygon fill="#1A6DAF" points="1117,418.3613,1121,428.3613,1125,418.3613,1121,422.3613" style="stroke:#1A6DAF;stroke-width:1.0;"/><line style="stroke:#1A6DAF;stroke-width:2.0;" x1="899.75" x2="899.75" y1="364.3613" y2="384.3613"/><polygon fill="#1A6DAF" points="895.75,374.3613,899.75,384.3613,903.75,374.3613,899.75,378.3613" style="stroke:#1A6DAF;stroke-width:1.0;"/><line style="stroke:#1A6DAF;stroke-width:2.0;" x1="281" x2="281" y1="1506.0615" y2="1510.0615"/><line style="stroke:#1A6DAF;stroke-width:2.0;" x1="281" x2="899.75" y1="1510.0615" y2="1510.0615"/><line style="stroke:#1A6DAF;stroke-width:2.0;" x1="899.75" x2="899.75" y1="1510.0615" y2="1526.0615"/><polygon fill="#1A6DAF" points="895.75,1516.0615,899.75,1526.0615,903.75,1516.0615,899.75,1520.0615" style="stroke:#1A6DAF;stroke-width:1.0;"/><line style="stroke:#1A6DAF;stroke-width:2.0;" x1="148.5" x2="148.5" y1="223.9863" y2="228.9863"/><line style="stroke:#1A6DAF;stroke-width:2.0;" x1="148.5" x2="899.75" y1="228.9863" y2="228.9863"/><line style="stroke:#1A6DAF;stroke-width:2.0;" x1="899.75" x2="899.75" y1="228.9863" y2="243.9863"/><polygon fill="#1A6DAF" points="895.75,233.9863,899.75,243.9863,903.75,233.9863,899.75,237.9863" style="stroke:#1A6DAF;stroke-width:1.0;"/><line style="stroke:#1A6DAF;stroke-width:2.0;" x1="1269" x2="1269" y1="1163.5928" y2="1167.5928"/><line style="stroke:#1A6DAF;stroke-width:2.0;" x1="1269" x2="402" y1="1167.5928" y2="1167.5928"/><line style="stroke:#1A6DAF;stroke-width:2.0;" x1="402" x2="402" y1="1167.5928" y2="1305.7334"/><polygon fill="#1A6DAF" points="398,1295.7334,402,1305.7334,406,1295.7334,402,1299.7334" style="stroke:#1A6DAF;stroke-width:1.0;"/><text fill="#0A2540" font-family="sans-serif" font-size="18" lengthAdjust="spacing" textLength="114" x="220.5" y="69.75">Administrateur</text><text fill="#0A2540" font-family="sans-serif" font-size="18" lengthAdjust="spacing" textLength="69" x="930.75" y="69.75">Syst&#232;me</text><!--SRC=[ZLLBRkD64Dtp58MPXIJ4GCQJ6MCW8mYe3sViIBOYSPoDWA15jiYsMjrqVsGhy2A7o06ojBBE3NYJd2JLJUgJM3QYXKYfw_FgrQlg1bn9kwB4Fa1155cMJqPH3OMq2ifDGPZMJ077lpZB13wQCydJLg0NJ7W784h9-pXdoGAFDRm_E0eJmrRCh3jIfLGTjnaHPPXXKZmt2XeGEom7kAHY6HE8zbWMaYmo9Qr8kv9B1M_xdw8FKUz5FBNLQNZM2wCZLZr6bbAapyBsplfXzEaLX_yLFNIqlMIKqZcnt4HIcDhaNVZ-uuTtHtbxLdOd-XXrNgRufQGxiuEqhnjDsAyKJhzxyTYiEGMdbmCBZpIHIb05fuS5wPoayfw938ooD0Wm3dgFE35qBjMImezX53R26Fh32Vpzs-_mkTo8SgE8ImT3Wa9TKMHEGqGIOr4jGV1Oa_4Ofaicc3PeJQrw3BH1e45xKcuuJLm01uSJA30WawcB0tCVneUVYkPGCWtVGYWm9ssT1-qkPtSMlJHEofi14KaL8Jj4jQnGlJdtKBmS7oThRSgd9Nt444YIAl_Yj9gmdCmOPyQxQanvuy3CMLB5YkM22hZyEKOKu-j1_vUmDxouSaZ6zCwMVneAdLuR-WzO95FKHoma4uPa5ADXnSOQ24UZyVNNcturuGSL8qGsX-Pewu5TmCLGRZJyq0AJO-hcbHIj0E1j57NnqmxdY2r7x5O0ML5ilDPqIOMPYj0cLY29qhErPNA6_VHf4seGxJupm89n7b2kAJIlBVDPmdxlB3fjNmZK4-5CUvA0ImFD3Z59tjhtY6f43t2VCxHeNfWT_xgg4RrD9GswBBXSOrKjm7Os-_LFD6Gh8enB3D0ECrLkiYgXaOPmxvjJbmbM22R5gggS08wrNHpCQqYIurlvX-FbCv9OU3L5UpNj6QrhzKd7vIQnZfDQ3OThRuuxJoICAYUB-79u0ZswGafE87QRExu9M-VRE5t24rj92eOeC2mBliHJiNt_7hvKXSIkCdoY_-NmLVSuxau5VZdV6Bw19dx_Eskz5DlrJ5RkSuxOPWZToJ6rCEf5Vf3S2C8bqGLLOrf8PJJ6Z5rhS3htXGoO2zFuEXuuvrGcredB4SiR-CAmpTjHt_c4jzAQQX1hQG2nNZHfWmdjH2f5PLsfhTQqhw7MzRu6fs6aI3dnD8YGIsmzdGeSspdBjir4yd3EnPr5flP0BZ8XNGYK-avqM_4xF5E11mMk1xH1XBN-QcGYPNCdBdofDJtm2iOBsJBjzazmC27z1wSSN_M-HlJrsuVMqm8N_gGr5KxAsx61b0ZjoEeGxLLQJsobRLox2m_eoExoHVPmVUAWk2rOoNsaP89tjzKGwhL8SYK5TOhD5IKfxgsVBBNR3jULZJmdES5TkcjPlKDzeLjPuah4Uy4ljWPT4iPnUcQtr9n0Lwf2ep27WxrsGZ-6jGnnIpafeVmSAmKhdx07jsxHqV_gjozMSessAqPWGjNAANKoZ4UGOWCE6-JHrnm1oGWJMwQENpW-ITsmtU9qwyLjHHH0wYvAbRedCcVoyaaxvgvckrwTL0CBtV04Rw5AYzfNZ72gNWMrSexqInjP1Fy0]--></g></svg>