<?xml version="1.0" encoding="us-ascii" standalone="no"?><svg xmlns="http://www.w3.org/2000/svg" xmlns:xlink="http://www.w3.org/1999/xlink" contentStyleType="text/css" height="922px" preserveAspectRatio="none" style="width:1527px;height:922px;background:#FFFFFF;" version="1.1" viewBox="0 0 1527 922" width="1527px" zoomAndPan="magnify"><defs><filter height="300%" id="f1n11nu2c5ufn0" width="300%" x="-1" y="-1"><feGaussianBlur result="blurOut" stdDeviation="2.0"/><feColorMatrix in="blurOut" result="blurOut2" type="matrix" values="0 0 0 0 0 0 0 0 0 0 0 0 0 0 0 0 0 0 .4 0"/><feOffset dx="4.0" dy="4.0" in="blurOut2" result="blurOut3"/><feBlend in="SourceGraphic" in2="blurOut3" mode="normal"/></filter></defs><g><text fill="#0A2540" font-family="sans-serif" font-size="14" font-weight="bold" lengthAdjust="spacing" textLength="431.4375" x="546.5313" y="34.5332">Plateforme KAFA'AT EMS &#8212; Saisie et Validation des Pointages</text><rect fill="none" height="22.6406" style="stroke:none;stroke-width:1.0;" width="1494.5" x="15" y="51.0645"/><rect fill="#D6EAF8" height="854.7891" style="stroke:#D6EAF8;stroke-width:1.0;" width="298.5" x="15" y="51.0645"/><ellipse cx="213.5" cy="88.7051" fill="#222222" filter="url(#f1n11nu2c5ufn0)" rx="10" ry="10" style="stroke:#222222;stroke-width:1.0;"/><rect fill="#E8F4FD" filter="url(#f1n11nu2c5ufn0)" height="50.1875" rx="5" ry="5" style="stroke:#1A6DAF;stroke-width:0.5;" width="180" x="123.5" y="118.7051"/><text fill="#0A2540" font-family="sans-serif" font-size="12" lengthAdjust="spacing" textLength="160" x="133.5" y="141.1621">Saisir les d&#233;tails du pointage</text><text fill="#0A2540" font-family="sans-serif" font-size="12" lengthAdjust="spacing" textLength="159" x="133.5" y="156.2559">(Projet, Date, Heures, T&#226;che)</text><rect fill="#E8F4FD" filter="url(#f1n11nu2c5ufn0)" height="35.0938" rx="5" ry="5" style="stroke:#1A6DAF;stroke-width:0.5;" width="171" x="21" y="303.0801"/><text fill="#0A2540" font-family="sans-serif" font-size="12" lengthAdjust="spacing" textLength="151" x="31" y="325.5371">Corriger les heures saisies</text><ellipse cx="106.5" cy="369.1738" fill="none" filter="url(#f1n11nu2c5ufn0)" rx="11" ry="11" style="stroke:#222222;stroke-width:1.0;"/><ellipse cx="106.5" cy="369.1738" fill="#222222" rx="6" ry="6" style="stroke:#222222;stroke-width:1.0;"/><line style="stroke:#000000;stroke-width:1.5;" x1="15" x2="15" y1="51.0645" y2="905.8535"/><rect fill="#E8F4FD" height="854.7891" style="stroke:#E8F4FD;stroke-width:1.0;" width="608.5" x="313.5" y="51.0645"/><polygon fill="#D6EAF8" filter="url(#f1n11nu2c5ufn0)" points="523,188.8926,693,188.8926,705,200.8926,693,212.8926,523,212.8926,511,200.8926,523,188.8926" style="stroke:#1A6DAF;stroke-width:0.5;"/><text fill="#0A2540" font-family="sans-serif" font-size="11" lengthAdjust="spacing" textLength="170" x="523" y="205.3936">Cumul heures &gt; Plafond journalier ?</text><text fill="#0A2540" font-family="sans-serif" font-size="11" lengthAdjust="spacing" textLength="16" x="495" y="198.4756">Oui</text><text fill="#0A2540" font-family="sans-serif" font-size="11" lengthAdjust="spacing" textLength="19" x="705" y="198.4756">Non</text><rect fill="#FFCCCC" filter="url(#f1n11nu2c5ufn0)" height="50.1875" rx="5" ry="5" style="stroke:#1A6DAF;stroke-width:0.5;" width="128" x="437" y="232.8926"/><text fill="#0A2540" font-family="sans-serif" font-size="12" lengthAdjust="spacing" textLength="90" x="447" y="255.3496">Rejeter la saisie</text><text fill="#0A2540" font-family="sans-serif" font-size="12" lengthAdjust="spacing" textLength="108" x="447" y="270.4434">(Afficher erreur 400)</text><rect fill="#AED6F1" filter="url(#f1n11nu2c5ufn0)" height="50.1875" rx="5" ry="5" style="stroke:#1A6DAF;stroke-width:0.5;" width="198" x="616" y="232.8926"/><text fill="#0A2540" font-family="sans-serif" font-size="12" lengthAdjust="spacing" textLength="178" x="626" y="255.3496">Enregistrer en base de donn&#233;es</text><text fill="#0A2540" font-family="sans-serif" font-size="12" lengthAdjust="spacing" textLength="90" x="626" y="270.4434">Statut = SOUMIS</text><rect fill="#AED6F1" filter="url(#f1n11nu2c5ufn0)" height="50.1875" rx="5" ry="5" style="stroke:#1A6DAF;stroke-width:0.5;" width="133" x="319.5" y="528.1973"/><text fill="#0A2540" font-family="sans-serif" font-size="12" lengthAdjust="spacing" textLength="113" x="329.5" y="550.6543">Mettre &#224; jour le statut</text><text fill="#0A2540" font-family="sans-serif" font-size="12" lengthAdjust="spacing" textLength="109" x="329.5" y="565.748">Statut = APPROUVE</text><rect fill="#FFCCCC" filter="url(#f1n11nu2c5ufn0)" height="50.1875" rx="5" ry="5" style="stroke:#1A6DAF;stroke-width:0.5;" width="133" x="513" y="598.291"/><text fill="#0A2540" font-family="sans-serif" font-size="12" lengthAdjust="spacing" textLength="113" x="523" y="620.748">Mettre &#224; jour le statut</text><text fill="#0A2540" font-family="sans-serif" font-size="12" lengthAdjust="spacing" textLength="93" x="523" y="635.8418">Statut = REFUSE</text><rect fill="#E8F4FD" filter="url(#f1n11nu2c5ufn0)" height="35.0938" rx="5" ry="5" style="stroke:#1A6DAF;stroke-width:0.5;" width="183" x="488" y="683.4785"/><text fill="#0A2540" font-family="sans-serif" font-size="12" lengthAdjust="spacing" textLength="163" x="498" y="705.9355">Envoyer une notification email</text><ellipse cx="579.5" cy="752.4902" fill="none" filter="url(#f1n11nu2c5ufn0)" rx="11" ry="11" style="stroke:#222222;stroke-width:1.0;"/><ellipse cx="579.5" cy="752.4902" fill="#222222" rx="6" ry="6" style="stroke:#222222;stroke-width:1.0;"/><rect fill="#E8F4FD" filter="url(#f1n11nu2c5ufn0)" height="35.0938" rx="5" ry="5" style="stroke:#1A6DAF;stroke-width:0.5;" width="213" x="695" y="595.373"/><text fill="#0A2540" font-family="sans-serif" font-size="12" lengthAdjust="spacing" textLength="193" x="705" y="617.8301">Historiser dans la table Ajustement</text><rect fill="#85C1E9" filter="url(#f1n11nu2c5ufn0)" height="50.1875" rx="5" ry="5" style="stroke:#1A6DAF;stroke-width:0.5;" width="133" x="735" y="665.4668"/><text fill="#0A2540" font-family="sans-serif" font-size="12" lengthAdjust="spacing" textLength="113" x="745" y="687.9238">Mettre &#224; jour le statut</text><text fill="#0A2540" font-family="sans-serif" font-size="12" lengthAdjust="spacing" textLength="89" x="745" y="703.0176">Statut = AJUSTE</text><rect fill="#E8F4FD" filter="url(#f1n11nu2c5ufn0)" height="35.0938" rx="5" ry="5" style="stroke:#1A6DAF;stroke-width:0.5;" width="221" x="691" y="738.5723"/><text fill="#0A2540" font-family="sans-serif" font-size="12" lengthAdjust="spacing" textLength="201" x="701" y="761.0293">Envoyer une Alerte SMTP a l'employe</text><rect fill="#E8F4FD" filter="url(#f1n11nu2c5ufn0)" height="50.1875" rx="5" ry="5" style="stroke:#1A6DAF;stroke-width:0.5;" width="186" x="515" y="813.666"/><text fill="#0A2540" font-family="sans-serif" font-size="12" lengthAdjust="spacing" textLength="166" x="525" y="836.123">Rendre le pointage disponible</text><text fill="#0A2540" font-family="sans-serif" font-size="12" lengthAdjust="spacing" textLength="98" x="525" y="851.2168">pour la facturation</text><ellipse cx="608" cy="894.8535" fill="none" filter="url(#f1n11nu2c5ufn0)" rx="11" ry="11" style="stroke:#222222;stroke-width:1.0;"/><ellipse cx="608" cy="894.8535" fill="#222222" rx="6" ry="6" style="stroke:#222222;stroke-width:1.0;"/><line style="stroke:#000000;stroke-width:1.5;" x1="313.5" x2="313.5" y1="51.0645" y2="905.8535"/><rect fill="#EBF5FB" height="854.7891" style="stroke:#EBF5FB;stroke-width:1.0;" width="586" x="922" y="51.0645"/><rect fill="#E8F4FD" filter="url(#f1n11nu2c5ufn0)" height="50.1875" rx="5" ry="5" style="stroke:#1A6DAF;stroke-width:0.5;" width="176" x="1123" y="400.1738"/><text fill="#0A2540" font-family="sans-serif" font-size="12" lengthAdjust="spacing" textLength="156" x="1133" y="422.6309">Consulter le tableau de bord</text><text fill="#0A2540" font-family="sans-serif" font-size="12" lengthAdjust="spacing" textLength="136" x="1133" y="437.7246">des pointages en attente</text><polygon fill="#D6EAF8" filter="url(#f1n11nu2c5ufn0)" points="949,470.3613,1089,470.3613,1101,482.3613,1089,494.3613,949,494.3613,937,482.3613,949,470.3613" style="stroke:#1A6DAF;stroke-width:0.5;"/><text fill="#0A2540" font-family="sans-serif" font-size="11" lengthAdjust="spacing" textLength="52" x="1023" y="505.7803">Approuver</text><text fill="#0A2540" font-family="sans-serif" font-size="11" lengthAdjust="spacing" textLength="140" x="949" y="486.8623">D&#233;cision de l'administrateur ?</text><polygon fill="#D6EAF8" filter="url(#f1n11nu2c5ufn0)" points="1163,470.3613,1202,470.3613,1214,482.3613,1202,494.3613,1163,494.3613,1151,482.3613,1163,470.3613" style="stroke:#1A6DAF;stroke-width:0.5;"/><text fill="#0A2540" font-family="sans-serif" font-size="11" lengthAdjust="spacing" textLength="56" x="1186.5" y="505.7803">S&#233;lectionn&#233;</text><text fill="#0A2540" font-family="sans-serif" font-size="11" lengthAdjust="spacing" textLength="39" x="1163" y="486.8623">Refuser</text><text fill="#0A2540" font-family="sans-serif" font-size="11" lengthAdjust="spacing" textLength="86" x="1214" y="479.9443">Ajuster / Override</text><rect fill="#E8F4FD" filter="url(#f1n11nu2c5ufn0)" height="35.0938" rx="5" ry="5" style="stroke:#1A6DAF;stroke-width:0.5;" width="143" x="1111" y="528.1973"/><text fill="#0A2540" font-family="sans-serif" font-size="12" lengthAdjust="spacing" textLength="123" x="1121" y="550.6543">Saisir le motif du refus</text><rect fill="#E8F4FD" filter="url(#f1n11nu2c5ufn0)" height="50.1875" rx="5" ry="5" style="stroke:#1A6DAF;stroke-width:0.5;" width="188" x="1310" y="510.1855"/><text fill="#0A2540" font-family="sans-serif" font-size="12" lengthAdjust="spacing" textLength="150" x="1320" y="532.6426">Saisir les nouvelles heures</text><text fill="#0A2540" font-family="sans-serif" font-size="12" lengthAdjust="spacing" textLength="168" x="1320" y="547.7363">et le motif justificatif obligatoire</text><line style="stroke:#000000;stroke-width:1.5;" x1="922" x2="922" y1="51.0645" y2="905.8535"/><line style="stroke:#000000;stroke-width:1.5;" x1="1508" x2="1508" y1="51.0645" y2="905.8535"/><line style="stroke:#1A6DAF;stroke-width:1.0;" x1="213.5" x2="213.5" y1="98.7051" y2="118.7051"/><polygon fill="#1A6DAF" points="209.5,108.7051,213.5,118.7051,217.5,108.7051,213.5,112.7051" style="stroke:#1A6DAF;stroke-width:1.0;"/><line style="stroke:#1A6DAF;stroke-width:1.0;" x1="106.5" x2="106.5" y1="338.1738" y2="358.1738"/><polygon fill="#1A6DAF" points="102.5,348.1738,106.5,358.1738,110.5,348.1738,106.5,352.1738" style="stroke:#1A6DAF;stroke-width:1.0;"/><line style="stroke:#1A6DAF;stroke-width:1.0;" x1="511" x2="501" y1="200.8926" y2="200.8926"/><line style="stroke:#1A6DAF;stroke-width:1.0;" x1="501" x2="501" y1="200.8926" y2="232.8926"/><polygon fill="#1A6DAF" points="497,222.8926,501,232.8926,505,222.8926,501,226.8926" style="stroke:#1A6DAF;stroke-width:1.0;"/><line style="stroke:#1A6DAF;stroke-width:1.0;" x1="705" x2="715" y1="200.8926" y2="200.8926"/><line style="stroke:#1A6DAF;stroke-width:1.0;" x1="715" x2="715" y1="200.8926" y2="232.8926"/><polygon fill="#1A6DAF" points="711,222.8926,715,232.8926,719,222.8926,715,226.8926" style="stroke:#1A6DAF;stroke-width:1.0;"/><line style="stroke:#1A6DAF;stroke-width:1.0;" x1="715" x2="715" y1="283.0801" y2="385.1738"/><line style="stroke:#1A6DAF;stroke-width:1.0;" x1="715" x2="1211" y1="385.1738" y2="385.1738"/><line style="stroke:#1A6DAF;stroke-width:1.0;" x1="1211" x2="1211" y1="385.1738" y2="400.1738"/><polygon fill="#1A6DAF" points="1207,390.1738,1211,400.1738,1215,390.1738,1211,394.1738" style="stroke:#1A6DAF;stroke-width:1.0;"/><line style="stroke:#1A6DAF;stroke-width:1.0;" x1="579.5" x2="579.5" y1="648.4785" y2="683.4785"/><polygon fill="#1A6DAF" points="575.5,673.4785,579.5,683.4785,583.5,673.4785,579.5,677.4785" style="stroke:#1A6DAF;stroke-width:1.0;"/><line style="stroke:#1A6DAF;stroke-width:1.0;" x1="579.5" x2="579.5" y1="718.5723" y2="741.4902"/><polygon fill="#1A6DAF" points="575.5,731.4902,579.5,741.4902,583.5,731.4902,579.5,735.4902" style="stroke:#1A6DAF;stroke-width:1.0;"/><line style="stroke:#1A6DAF;stroke-width:1.0;" x1="801.5" x2="801.5" y1="630.4668" y2="665.4668"/><polygon fill="#1A6DAF" points="797.5,655.4668,801.5,665.4668,805.5,655.4668,801.5,659.4668" style="stroke:#1A6DAF;stroke-width:1.0;"/><line style="stroke:#1A6DAF;stroke-width:1.0;" x1="801.5" x2="801.5" y1="715.6543" y2="738.5723"/><polygon fill="#1A6DAF" points="797.5,728.5723,801.5,738.5723,805.5,728.5723,801.5,732.5723" style="stroke:#1A6DAF;stroke-width:1.0;"/><line style="stroke:#1A6DAF;stroke-width:1.0;" x1="386" x2="386" y1="578.3848" y2="793.666"/><polygon fill="#1A6DAF" points="382,783.666,386,793.666,390,783.666,386,787.666" style="stroke:#1A6DAF;stroke-width:1.0;"/><line style="stroke:#1A6DAF;stroke-width:1.0;" x1="801.5" x2="801.5" y1="773.666" y2="793.666"/><polygon fill="#1A6DAF" points="797.5,783.666,801.5,793.666,805.5,783.666,801.5,787.666" style="stroke:#1A6DAF;stroke-width:1.0;"/><line style="stroke:#1A6DAF;stroke-width:1.0;" x1="386" x2="801.5" y1="793.666" y2="793.666"/><line style="stroke:#1A6DAF;stroke-width:1.0;" x1="608" x2="608" y1="863.8535" y2="883.8535"/><polygon fill="#1A6DAF" points="604,873.8535,608,883.8535,612,873.8535,608,877.8535" style="stroke:#1A6DAF;stroke-width:1.0;"/><line style="stroke:#1A6DAF;stroke-width:1.0;" x1="1182.5" x2="1182.5" y1="494.3613" y2="528.1973"/><polygon fill="#1A6DAF" points="1178.5,518.1973,1182.5,528.1973,1186.5,518.1973,1182.5,522.1973" style="stroke:#1A6DAF;stroke-width:1.0;"/><line style="stroke:#1A6DAF;stroke-width:1.0;" x1="1101" x2="1151" y1="482.3613" y2="482.3613"/><polygon fill="#1A6DAF" points="1141,478.3613,1151,482.3613,1141,486.3613,1145,482.3613" style="stroke:#1A6DAF;stroke-width:1.0;"/><line style="stroke:#1A6DAF;stroke-width:1.0;" x1="1211" x2="1211" y1="450.3613" y2="455.3613"/><line style="stroke:#1A6DAF;stroke-width:1.0;" x1="1211" x2="1019" y1="455.3613" y2="455.3613"/><line style="stroke:#1A6DAF;stroke-width:1.0;" x1="1019" x2="1019" y1="455.3613" y2="470.3613"/><polygon fill="#1A6DAF" points="1015,460.3613,1019,470.3613,1023,460.3613,1019,464.3613" style="stroke:#1A6DAF;stroke-width:1.0;"/><line style="stroke:#1A6DAF;stroke-width:1.0;" x1="1214" x2="1404" y1="482.3613" y2="482.3613"/><line style="stroke:#1A6DAF;stroke-width:1.0;" x1="1404" x2="1404" y1="482.3613" y2="510.1855"/><polygon fill="#1A6DAF" points="1400,500.1855,1404,510.1855,1408,500.1855,1404,504.1855" style="stroke:#1A6DAF;stroke-width:1.0;"/><line style="stroke:#1A6DAF;stroke-width:1.0;" x1="501" x2="501" y1="283.0801" y2="288.0801"/><line style="stroke:#1A6DAF;stroke-width:1.0;" x1="501" x2="106.5" y1="288.0801" y2="288.0801"/><line style="stroke:#1A6DAF;stroke-width:1.0;" x1="106.5" x2="106.5" y1="288.0801" y2="303.0801"/><polygon fill="#1A6DAF" points="102.5,293.0801,106.5,303.0801,110.5,293.0801,106.5,297.0801" style="stroke:#1A6DAF;stroke-width:1.0;"/><line style="stroke:#1A6DAF;stroke-width:1.0;" x1="213.5" x2="213.5" y1="168.8926" y2="173.8926"/><line style="stroke:#1A6DAF;stroke-width:1.0;" x1="213.5" x2="608" y1="173.8926" y2="173.8926"/><line style="stroke:#1A6DAF;stroke-width:1.0;" x1="608" x2="608" y1="173.8926" y2="188.8926"/><polygon fill="#1A6DAF" points="604,178.8926,608,188.8926,612,178.8926,608,182.8926" style="stroke:#1A6DAF;stroke-width:1.0;"/><line style="stroke:#1A6DAF;stroke-width:1.0;" x1="1182.5" x2="1182.5" y1="563.291" y2="580.791"/><line style="stroke:#1A6DAF;stroke-width:1.0;" x1="1182.5" x2="579.5" y1="580.791" y2="580.791"/><line style="stroke:#1A6DAF;stroke-width:1.0;" x1="579.5" x2="579.5" y1="580.791" y2="598.291"/><polygon fill="#1A6DAF" points="575.5,588.291,579.5,598.291,583.5,588.291,579.5,592.291" style="stroke:#1A6DAF;stroke-width:1.0;"/><line style="stroke:#1A6DAF;stroke-width:1.0;" x1="1404" x2="1404" y1="560.373" y2="577.873"/><line style="stroke:#1A6DAF;stroke-width:1.0;" x1="1404" x2="801.5" y1="577.873" y2="577.873"/><line style="stroke:#1A6DAF;stroke-width:1.0;" x1="801.5" x2="801.5" y1="577.873" y2="595.373"/><polygon fill="#1A6DAF" points="797.5,585.373,801.5,595.373,805.5,585.373,801.5,589.373" style="stroke:#1A6DAF;stroke-width:1.0;"/><line style="stroke:#1A6DAF;stroke-width:1.0;" x1="1019" x2="1019" y1="494.3613" y2="498.3613"/><line style="stroke:#1A6DAF;stroke-width:1.0;" x1="1019" x2="386" y1="498.3613" y2="498.3613"/><line style="stroke:#1A6DAF;stroke-width:1.0;" x1="386" x2="386" y1="498.3613" y2="528.1973"/><polygon fill="#1A6DAF" points="382,518.1973,386,528.1973,390,518.1973,386,522.1973" style="stroke:#1A6DAF;stroke-width:1.0;"/><line style="stroke:#1A6DAF;stroke-width:1.0;" x1="1211" x2="1211" y1="793.666" y2="798.666"/><line style="stroke:#1A6DAF;stroke-width:1.0;" x1="1211" x2="608" y1="798.666" y2="798.666"/><line style="stroke:#1A6DAF;stroke-width:1.0;" x1="608" x2="608" y1="798.666" y2="813.666"/><polygon fill="#1A6DAF" points="604,803.666,608,813.666,612,803.666,608,807.666" style="stroke:#1A6DAF;stroke-width:1.0;"/><text fill="#0A2540" font-family="sans-serif" font-size="18" lengthAdjust="spacing" textLength="69" x="129.75" y="69.75">Employ&#233;</text><text fill="#0A2540" font-family="sans-serif" font-size="18" lengthAdjust="spacing" textLength="69" x="583.25" y="69.75">Syst&#232;me</text><text fill="#0A2540" font-family="sans-serif" font-size="18" lengthAdjust="spacing" textLength="114" x="1158" y="69.75">Administrateur</text><!--SRC=[ZLDTJjj047xtAKRY0P109IrG6jHMIs8BsW9Hd5HzY90szZXPMEz6ksjGgZpq43r0rQVc7Bv9Jz9Pnq3Q02MA52kU-Nvclh5NGasuuJcmn8bhuQP7FBaQ6LsejAMbDh0M7aIxKJkmgvNQf6ZggWRRRxFeWQgsuBbMwGfiUpzaqS4J3Sz2PyRecyUAKinu8LsabQjBTjZBlTsTfP8EDquueTMgxQDeBpfwiFH9PNTbIxHF5yNYAqBZrQEltLGY3BLCboegfOas2WqqbWtPCK_rZL0ZSAR0820Swkv8xZ3J9aVuo2AspdeGdiRm-zjtYBcm0W4TVEPIfDpJqkGiTBHGZe_G1i6itjOip2TIJylvBB2ED0RDgjk0fFgqd3ik93qKCAbx1sgZO_GbkYreau8jECR2eDs2Nlap6UFceSTU16mMJwqhV-Ku2qG66wqYBoICgt9uvmra50gur8LHf9Dilzy4DqO56-U5s0m0rgAeHPzc5ucFtaiEjl968bYM2U8pWCOG9Epkx10tm0F609ejROmOuS9MBM41PNsJTNeIeBG86sTQRLOmAnv83mlR-r6Z6Ig38s6TyVGAXfmQK_fgfSevse6A7NU5WxSGd_TFJ-B305KgiceoLGPdBCs5yWWqmiBC0XAeB0MxKWYE3oNomcCEAPa3vPTtkm3hARbpg1pIiFras-Ky8I_Lba6kyx_0xwVA9XCAsJMQ_neyHKVceFnHRSTBifMZ9MUiq-cUzp-79C4FpileObPOGg_fud8kCV7XewdKb0-xfmNTfGvoxGYC4cSytE6ZKkjiF4DgDupwSUYHQ7FNUaf3BXI2yaGYMPm7vXJqsoW0_Qx3nSK579ynQ7Txy6axEldIl3kWXRPo3bTyklrwY9P2fVWMvDp_aITZYYR8xOmdhZ0LGL37YrqMrc_v1PpJ8en8yTcJiQIOjYVl8pnGTEDt8_F8jQ4Cz52A4NTQ67nqXCrZOj96qCuWvShw-wgY1mkLEKNCDwyTxBKQuPjdfU93F-wjZff9D0uXFkrrW5D2iRfD7z_xm_XN7rszIecEQ6wZ3wcm4wq4IHoeIQM1mzAG3uFgaFy0]--></g></svg>