<?xml version="1.0" encoding="us-ascii" standalone="no"?><svg xmlns="http://www.w3.org/2000/svg" xmlns:xlink="http://www.w3.org/1999/xlink" contentStyleType="text/css" height="1112px" preserveAspectRatio="none" style="width:984px;height:1112px;background:#FFFFFF;" version="1.1" viewBox="0 0 984 1112" width="984px" zoomAndPan="magnify"><defs><filter height="300%" id="f15cjkkp1cz99d" width="300%" x="-1" y="-1"><feGaussianBlur result="blurOut" stdDeviation="2.0"/><feColorMatrix in="blurOut" result="blurOut2" type="matrix" values="0 0 0 0 0 0 0 0 0 0 0 0 0 0 0 0 0 0 .4 0"/><feOffset dx="4.0" dy="4.0" in="blurOut2" result="blurOut3"/><feBlend in="SourceGraphic" in2="blurOut3" mode="normal"/></filter></defs><g><rect fill="#E8F4FD" height="1100.1172" rx="5" ry="5" style="stroke:#1A6DAF;stroke-width:0.5;" width="895.5" x="41" y="6"/><text fill="#1A6DAF" font-family="sans-serif" font-size="13" font-weight="bold" lengthAdjust="spacing" textLength="294.4063" x="341.5469" y="19.4951">Plateforme KAFA'AT EMS &#8212; Module Worktime</text><rect fill="#E8F4FD" filter="url(#f15cjkkp1cz99d)" height="30.3516" style="stroke:#1A6DAF;stroke-width:1.0;" width="10" x="364" y="256.9766"/><rect fill="#E8F4FD" filter="url(#f15cjkkp1cz99d)" height="632.8672" style="stroke:#1A6DAF;stroke-width:1.0;" width="10" x="364" y="362.0313"/><rect fill="#D6EAF8" filter="url(#f15cjkkp1cz99d)" height="463.7578" style="stroke:#1A6DAF;stroke-width:1.0;" width="10" x="669" y="531.1406"/><rect fill="#AED6F1" filter="url(#f15cjkkp1cz99d)" height="30.3516" style="stroke:#1A6DAF;stroke-width:1.0;" width="10" x="897" y="665.5469"/><rect fill="#AED6F1" filter="url(#f15cjkkp1cz99d)" height="30.3516" style="stroke:#1A6DAF;stroke-width:1.0;" width="10" x="897" y="795.9531"/><rect fill="none" filter="url(#f15cjkkp1cz99d)" height="108.4063" rx="5" ry="5" style="stroke:#000000;stroke-width:1.5;" width="529" x="35" y="377.0313"/><rect fill="none" filter="url(#f15cjkkp1cz99d)" height="232.6484" rx="5" ry="5" style="stroke:#000000;stroke-width:1.5;" width="907.5" x="35" y="755.25"/><line style="stroke:#1A6DAF;stroke-width:0.5;stroke-dasharray:5.0,5.0;" x1="80" x2="80" y1="124.5703" y2="1004.8984"/><line style="stroke:#1A6DAF;stroke-width:0.5;stroke-dasharray:5.0,5.0;" x1="368.5" x2="368.5" y1="124.5703" y2="1004.8984"/><line style="stroke:#1A6DAF;stroke-width:0.5;stroke-dasharray:5.0,5.0;" x1="673.5" x2="673.5" y1="124.5703" y2="1004.8984"/><line style="stroke:#1A6DAF;stroke-width:0.5;stroke-dasharray:5.0,5.0;" x1="901.5" x2="901.5" y1="124.5703" y2="1004.8984"/><text fill="#0D3349" font-family="sans-serif" font-size="14" lengthAdjust="spacing" textLength="62" x="46" y="103.8848">Utilisateur</text><text fill="#0D3349" font-family="sans-serif" font-size="14" lengthAdjust="spacing" textLength="64" x="45" y="121.4941">(Employ&#233;)</text><ellipse cx="80" cy="34.8516" fill="#1A6DAF" filter="url(#f15cjkkp1cz99d)" rx="8" ry="8" style="stroke:#0D3349;stroke-width:0.5;"/><path d="M80,42.8516 L80,69.8516 M67,50.8516 L93,50.8516 M80,69.8516 L67,84.8516 M80,69.8516 L93,84.8516 " fill="none" filter="url(#f15cjkkp1cz99d)" style="stroke:#0D3349;stroke-width:0.5;"/><text fill="#0D3349" font-family="sans-serif" font-size="14" lengthAdjust="spacing" textLength="62" x="46" y="1018.4316">Utilisateur</text><text fill="#0D3349" font-family="sans-serif" font-size="14" lengthAdjust="spacing" textLength="64" x="45" y="1036.041">(Employ&#233;)</text><ellipse cx="80" cy="1047.6172" fill="#1A6DAF" filter="url(#f15cjkkp1cz99d)" rx="8" ry="8" style="stroke:#0D3349;stroke-width:0.5;"/><path d="M80,1055.6172 L80,1082.6172 M67,1063.6172 L93,1063.6172 M80,1082.6172 L67,1097.6172 M80,1082.6172 L93,1097.6172 " fill="none" filter="url(#f15cjkkp1cz99d)" style="stroke:#0D3349;stroke-width:0.5;"/><rect fill="#1A6DAF" filter="url(#f15cjkkp1cz99d)" height="46.7031" rx="5" ry="5" style="stroke:#1A6DAF;stroke-width:0.5;" width="66" x="334.5" y="73.8672"/><text fill="#0A2540" font-family="sans-serif" font-size="13" lengthAdjust="spacing" textLength="51" x="342" y="94.3623">Frontend</text><text fill="#0A2540" font-family="sans-serif" font-size="13" lengthAdjust="spacing" textLength="52" x="341.5" y="110.7139">(Angular)</text><rect fill="#1A6DAF" filter="url(#f15cjkkp1cz99d)" height="46.7031" rx="5" ry="5" style="stroke:#1A6DAF;stroke-width:0.5;" width="66" x="334.5" y="1003.8984"/><text fill="#0A2540" font-family="sans-serif" font-size="13" lengthAdjust="spacing" textLength="51" x="342" y="1024.3936">Frontend</text><text fill="#0A2540" font-family="sans-serif" font-size="13" lengthAdjust="spacing" textLength="52" x="341.5" y="1040.7451">(Angular)</text><rect fill="#2E86C1" filter="url(#f15cjkkp1cz99d)" height="46.7031" rx="5" ry="5" style="stroke:#1A6DAF;stroke-width:0.5;" width="90" x="627.5" y="73.8672"/><text fill="#0A2540" font-family="sans-serif" font-size="13" lengthAdjust="spacing" textLength="51" x="647" y="94.3623">Backend</text><text fill="#0A2540" font-family="sans-serif" font-size="13" lengthAdjust="spacing" textLength="76" x="634.5" y="110.7139">(Spring Boot)</text><rect fill="#2E86C1" filter="url(#f15cjkkp1cz99d)" height="46.7031" rx="5" ry="5" style="stroke:#1A6DAF;stroke-width:0.5;" width="90" x="627.5" y="1003.8984"/><text fill="#0A2540" font-family="sans-serif" font-size="13" lengthAdjust="spacing" textLength="51" x="647" y="1024.3936">Backend</text><text fill="#0A2540" font-family="sans-serif" font-size="13" lengthAdjust="spacing" textLength="76" x="634.5" y="1040.7451">(Spring Boot)</text><text fill="#000000" font-family="sans-serif" font-size="14" lengthAdjust="spacing" textLength="52" x="873" y="103.8848">Base de</text><text fill="#000000" font-family="sans-serif" font-size="14" lengthAdjust="spacing" textLength="55" x="871.5" y="121.4941">donn&#233;es</text><path d="M884,53.3516 C884,43.3516 902,43.3516 902,43.3516 C902,43.3516 920,43.3516 920,53.3516 L920,79.3516 C920,89.3516 902,89.3516 902,89.3516 C902,89.3516 884,89.3516 884,79.3516 L884,53.3516 " fill="#D6EAF8" filter="url(#f15cjkkp1cz99d)" style="stroke:#181818;stroke-width:1.5;"/><path d="M884,53.3516 C884,63.3516 902,63.3516 902,63.3516 C902,63.3516 920,63.3516 920,53.3516 " fill="none" style="stroke:#181818;stroke-width:1.5;"/><text fill="#000000" font-family="sans-serif" font-size="14" lengthAdjust="spacing" textLength="52" x="873" y="1018.4316">Base de</text><text fill="#000000" font-family="sans-serif" font-size="14" lengthAdjust="spacing" textLength="55" x="871.5" y="1036.041">donn&#233;es</text><path d="M884,1049.1172 C884,1039.1172 902,1039.1172 902,1039.1172 C902,1039.1172 920,1039.1172 920,1049.1172 L920,1075.1172 C920,1085.1172 902,1085.1172 902,1085.1172 C902,1085.1172 884,1085.1172 884,1075.1172 L884,1049.1172 " fill="#D6EAF8" filter="url(#f15cjkkp1cz99d)" style="stroke:#181818;stroke-width:1.5;"/><path d="M884,1049.1172 C884,1059.1172 902,1059.1172 902,1059.1172 C902,1059.1172 920,1059.1172 920,1049.1172 " fill="none" style="stroke:#181818;stroke-width:1.5;"/><rect fill="#E8F4FD" filter="url(#f15cjkkp1cz99d)" height="30.3516" style="stroke:#1A6DAF;stroke-width:1.0;" width="10" x="364" y="256.9766"/><rect fill="#E8F4FD" filter="url(#f15cjkkp1cz99d)" height="632.8672" style="stroke:#1A6DAF;stroke-width:1.0;" width="10" x="364" y="362.0313"/><rect fill="#D6EAF8" filter="url(#f15cjkkp1cz99d)" height="463.7578" style="stroke:#1A6DAF;stroke-width:1.0;" width="10" x="669" y="531.1406"/><rect fill="#AED6F1" filter="url(#f15cjkkp1cz99d)" height="30.3516" style="stroke:#1A6DAF;stroke-width:1.0;" width="10" x="897" y="665.5469"/><rect fill="#AED6F1" filter="url(#f15cjkkp1cz99d)" height="30.3516" style="stroke:#1A6DAF;stroke-width:1.0;" width="10" x="897" y="795.9531"/><path d="M49,144.5703 L49,176.5703 A5,5 0 0 0 54,181.5703 L926,181.5703 A5,5 0 0 0 931,176.5703 L931,149.5703 L921,139.5703 L54,139.5703 A5,5 0 0 0 49,144.5703 " fill="#E8F4FD" filter="url(#f15cjkkp1cz99d)" style="stroke:#181818;stroke-width:0.5;"/><path d="M921,139.5703 L921,147.0703 A2.5,2.5 0 0 0 923.5,149.5703 L931,149.5703 L921,139.5703 " fill="#E8F4FD" style="stroke:#181818;stroke-width:0.5;"/><text fill="#000000" font-family="sans-serif" font-size="13" font-weight="bold" lengthAdjust="spacing" textLength="489.4063" x="236.25" y="158.0654">Flux de saisie d'un pointage &#8212; Validation JWT + R&#232;gles M&#233;tier + Persistance</text><text fill="#000000" font-family="sans-serif" font-size="13" lengthAdjust="spacing" textLength="496" x="236.25" y="174.417">&#160;&#160;&#160;&#160;&#160;&#160;&#160;&#160;&#160;&#160;&#160;&#160;&#160;&#160;&#160;&#160;&#160;&#160;&#160;&#160;&#160;&#160;&#160;&#160;&#160;&#160;&#160;&#160;&#160;&#160;&#160;&#160;&#160;&#160;&#160;&#160;&#160;&#160;&#160;&#160;&#160;&#160;&#160;&#160;&#160;&#160;&#160;&#160;&#160;&#160;&#160;&#160;&#160;&#160;&#160;&#160;&#160;&#160;&#160;&#160;&#160;&#160;&#160;&#160;&#160;&#160;&#160;&#160;&#160;&#160;&#160;&#160;&#160;&#160;&#160;&#160;&#160;&#160;&#160;&#160;&#160;&#160;&#160;&#160;&#160;&#160;&#160;&#160;&#160;&#160;&#160;&#160;&#160;&#160;&#160;&#160;&#160;&#160;&#160;&#160;&#160;&#160;&#160;&#160;&#160;&#160;&#160;&#160;&#160;&#160;&#160;&#160;&#160;&#160;&#160;&#160;&#160;&#160;&#160;&#160;&#160;&#160;&#160;&#160;</text><rect fill="#EEEEEE" filter="url(#f15cjkkp1cz99d)" height="3" rx="5" ry="5" style="stroke:#EEEEEE;stroke-width:1.0;" width="977.5" x="0" y="211.4492"/><line style="stroke:#000000;stroke-width:1.0;" x1="0" x2="977.5" y1="211.4492" y2="211.4492"/><line style="stroke:#000000;stroke-width:1.0;" x1="0" x2="977.5" y1="214.4492" y2="214.4492"/><rect fill="#EEEEEE" filter="url(#f15cjkkp1cz99d)" height="24.3516" rx="5" ry="5" style="stroke:#000000;stroke-width:2.0;" width="168" x="404.75" y="200.2734"/><text fill="#000000" font-family="sans-serif" font-size="13" font-weight="bold" lengthAdjust="spacing" textLength="150" x="410.75" y="217.7686">Affichage du formulaire</text><polygon fill="#1A6DAF" points="352,252.9766,362,256.9766,352,260.9766,356,256.9766" style="stroke:#1A6DAF;stroke-width:1.0;"/><line style="stroke:#1A6DAF;stroke-width:2.0;" x1="80" x2="358" y1="256.9766" y2="256.9766"/><text fill="#000000" font-family="sans-serif" font-size="13" font-weight="bold" lengthAdjust="spacing" textLength="7" x="87" y="252.1201">1</text><text fill="#000000" font-family="sans-serif" font-size="13" lengthAdjust="spacing" textLength="188" x="98" y="252.1201">Cliquer sur "Ajouter un pointage"</text><polygon fill="#1A6DAF" points="91,283.3281,81,287.3281,91,291.3281,87,287.3281" style="stroke:#1A6DAF;stroke-width:1.0;"/><line style="stroke:#1A6DAF;stroke-width:2.0;stroke-dasharray:2.0,2.0;" x1="85" x2="368" y1="287.3281" y2="287.3281"/><text fill="#000000" font-family="sans-serif" font-size="13" font-weight="bold" lengthAdjust="spacing" textLength="7" x="97" y="282.4717">2</text><text fill="#000000" font-family="sans-serif" font-size="13" lengthAdjust="spacing" textLength="173" x="108" y="282.4717">Afficher le formulaire de saisie</text><rect fill="#EEEEEE" filter="url(#f15cjkkp1cz99d)" height="3" rx="5" ry="5" style="stroke:#EEEEEE;stroke-width:1.0;" width="977.5" x="0" y="316.5039"/><line style="stroke:#000000;stroke-width:1.0;" x1="0" x2="977.5" y1="316.5039" y2="316.5039"/><line style="stroke:#000000;stroke-width:1.0;" x1="0" x2="977.5" y1="319.5039" y2="319.5039"/><rect fill="#EEEEEE" filter="url(#f15cjkkp1cz99d)" height="24.3516" rx="5" ry="5" style="stroke:#000000;stroke-width:2.0;" width="150" x="413.75" y="305.3281"/><text fill="#000000" font-family="sans-serif" font-size="13" font-weight="bold" lengthAdjust="spacing" textLength="132" x="419.75" y="322.8232">Saisie et Soumission</text><polygon fill="#1A6DAF" points="352,358.0313,362,362.0313,352,366.0313,356,362.0313" style="stroke:#1A6DAF;stroke-width:1.0;"/><line style="stroke:#1A6DAF;stroke-width:2.0;" x1="80" x2="358" y1="362.0313" y2="362.0313"/><text fill="#000000" font-family="sans-serif" font-size="13" font-weight="bold" lengthAdjust="spacing" textLength="7" x="87" y="357.1748">3</text><text fill="#000000" font-family="sans-serif" font-size="13" lengthAdjust="spacing" textLength="236" x="98" y="357.1748">Saisir (Projet, Date, Heures, Description)</text><path d="M40,377.0313 L100,377.0313 L100,385.3828 L90,395.3828 L35,395.3828 L35,382.0313 A5,5 0 0 1 40,377.0313 " fill="#EEEEEE" style="stroke:#000000;stroke-width:1.5;"/><rect fill="none" height="108.4063" rx="5" ry="5" style="stroke:#000000;stroke-width:1.5;" width="529" x="35" y="377.0313"/><text fill="#000000" font-family="sans-serif" font-size="13" font-weight="bold" lengthAdjust="spacing" textLength="20" x="50" y="391.5264">opt</text><text fill="#000000" font-family="sans-serif" font-size="11" font-weight="bold" lengthAdjust="spacing" textLength="97" x="115" y="390.4502">[Validation locale]</text><line style="stroke:#1A6DAF;stroke-width:2.0;" x1="374" x2="416" y1="434.0859" y2="434.0859"/><line style="stroke:#1A6DAF;stroke-width:2.0;" x1="416" x2="416" y1="434.0859" y2="447.0859"/><line style="stroke:#1A6DAF;stroke-width:2.0;" x1="375" x2="416" y1="447.0859" y2="447.0859"/><polygon fill="#1A6DAF" points="385,443.0859,375,447.0859,385,451.0859,381,447.0859" style="stroke:#1A6DAF;stroke-width:1.0;"/><text fill="#000000" font-family="sans-serif" font-size="13" font-weight="bold" lengthAdjust="spacing" textLength="7" x="381" y="421.0537">4</text><text fill="#000000" font-family="sans-serif" font-size="13" lengthAdjust="spacing" textLength="160" x="392" y="412.8779">V&#233;rifier champs obligatoires</text><text fill="#000000" font-family="sans-serif" font-size="13" lengthAdjust="spacing" textLength="127" x="392" y="429.2295">et format (Heures &gt; 0)</text><polygon fill="#1A6DAF" points="91,473.4375,81,477.4375,91,481.4375,87,477.4375" style="stroke:#1A6DAF;stroke-width:1.0;"/><line style="stroke:#1A6DAF;stroke-width:2.0;stroke-dasharray:2.0,2.0;" x1="85" x2="363" y1="477.4375" y2="477.4375"/><text fill="#000000" font-family="sans-serif" font-size="13" font-weight="bold" lengthAdjust="spacing" textLength="7" x="97" y="472.5811">5</text><text fill="#000000" font-family="sans-serif" font-size="13" lengthAdjust="spacing" textLength="220" x="108" y="472.5811">Afficher un message d'erreur de saisie</text><polygon fill="#1A6DAF" points="657,527.1406,667,531.1406,657,535.1406,661,531.1406" style="stroke:#1A6DAF;stroke-width:1.0;"/><line style="stroke:#1A6DAF;stroke-width:2.0;" x1="374" x2="663" y1="531.1406" y2="531.1406"/><text fill="#000000" font-family="sans-serif" font-size="13" font-weight="bold" lengthAdjust="spacing" textLength="7" x="381" y="518.1084">6</text><text fill="#000000" font-family="sans-serif" font-size="13" lengthAdjust="spacing" textLength="120" x="392" y="509.9326">POST /api/pointages</text><text fill="#000000" font-family="sans-serif" font-size="13" lengthAdjust="spacing" textLength="132" x="392" y="526.2842">(Donn&#233;es, Token JWT)</text><rect fill="#EEEEEE" filter="url(#f15cjkkp1cz99d)" height="3" rx="5" ry="5" style="stroke:#EEEEEE;stroke-width:1.0;" width="977.5" x="0" y="560.3164"/><line style="stroke:#000000;stroke-width:1.0;" x1="0" x2="977.5" y1="560.3164" y2="560.3164"/><line style="stroke:#000000;stroke-width:1.0;" x1="0" x2="977.5" y1="563.3164" y2="563.3164"/><rect fill="#EEEEEE" filter="url(#f15cjkkp1cz99d)" height="24.3516" rx="5" ry="5" style="stroke:#000000;stroke-width:2.0;" width="194" x="391.75" y="549.1406"/><text fill="#000000" font-family="sans-serif" font-size="13" font-weight="bold" lengthAdjust="spacing" textLength="176" x="397.75" y="566.6357">Validation M&#233;tier (Backend)</text><line style="stroke:#1A6DAF;stroke-width:2.0;" x1="679" x2="721" y1="605.8438" y2="605.8438"/><line style="stroke:#1A6DAF;stroke-width:2.0;" x1="721" x2="721" y1="605.8438" y2="618.8438"/><line style="stroke:#1A6DAF;stroke-width:2.0;" x1="680" x2="721" y1="618.8438" y2="618.8438"/><polygon fill="#1A6DAF" points="690,614.8438,680,618.8438,690,622.8438,686,618.8438" style="stroke:#1A6DAF;stroke-width:1.0;"/><text fill="#000000" font-family="sans-serif" font-size="13" font-weight="bold" lengthAdjust="spacing" textLength="7" x="686" y="600.9873">7</text><text fill="#000000" font-family="sans-serif" font-size="13" lengthAdjust="spacing" textLength="184" x="697" y="600.9873">V&#233;rifier la validit&#233; du Token JWT</text><polygon fill="#1A6DAF" points="885,661.5469,895,665.5469,885,669.5469,889,665.5469" style="stroke:#1A6DAF;stroke-width:1.0;"/><line style="stroke:#1A6DAF;stroke-width:2.0;" x1="679" x2="891" y1="665.5469" y2="665.5469"/><text fill="#000000" font-family="sans-serif" font-size="13" font-weight="bold" lengthAdjust="spacing" textLength="7" x="686" y="652.5146">8</text><text fill="#000000" font-family="sans-serif" font-size="13" lengthAdjust="spacing" textLength="168" x="697" y="644.3389">Calculer le cumul des heures</text><text fill="#000000" font-family="sans-serif" font-size="13" lengthAdjust="spacing" textLength="87" x="697" y="660.6904">pour cette date</text><polygon fill="#1A6DAF" points="690,691.8984,680,695.8984,690,699.8984,686,695.8984" style="stroke:#1A6DAF;stroke-width:1.0;"/><line style="stroke:#1A6DAF;stroke-width:2.0;stroke-dasharray:2.0,2.0;" x1="684" x2="901" y1="695.8984" y2="695.8984"/><text fill="#000000" font-family="sans-serif" font-size="13" font-weight="bold" lengthAdjust="spacing" textLength="7" x="696" y="691.042">9</text><text fill="#000000" font-family="sans-serif" font-size="13" lengthAdjust="spacing" textLength="109" x="707" y="691.042">Retourner le cumul</text><rect fill="#EEEEEE" filter="url(#f15cjkkp1cz99d)" height="3" rx="5" ry="5" style="stroke:#EEEEEE;stroke-width:1.0;" width="977.5" x="0" y="725.0742"/><line style="stroke:#000000;stroke-width:1.0;" x1="0" x2="977.5" y1="725.0742" y2="725.0742"/><line style="stroke:#000000;stroke-width:1.0;" x1="0" x2="977.5" y1="728.0742" y2="728.0742"/><rect fill="#EEEEEE" filter="url(#f15cjkkp1cz99d)" height="24.3516" rx="5" ry="5" style="stroke:#000000;stroke-width:2.0;" width="168" x="404.75" y="713.8984"/><text fill="#000000" font-family="sans-serif" font-size="13" font-weight="bold" lengthAdjust="spacing" textLength="150" x="410.75" y="731.3936">Enregistrement en base</text><path d="M40,755.25 L96,755.25 L96,763.6016 L86,773.6016 L35,773.6016 L35,760.25 A5,5 0 0 1 40,755.25 " fill="#EEEEEE" style="stroke:#000000;stroke-width:1.5;"/><rect fill="none" height="232.6484" rx="5" ry="5" style="stroke:#000000;stroke-width:1.5;" width="907.5" x="35" y="755.25"/><text fill="#000000" font-family="sans-serif" font-size="13" font-weight="bold" lengthAdjust="spacing" textLength="16" x="50" y="769.7451">alt</text><text fill="#000000" font-family="sans-serif" font-size="11" font-weight="bold" lengthAdjust="spacing" textLength="167" x="111" y="768.6689">[Cumul valide (Ex: &lt;= 24h/jour)]</text><polygon fill="#1A6DAF" points="885,791.9531,895,795.9531,885,799.9531,889,795.9531" style="stroke:#1A6DAF;stroke-width:1.0;"/><line style="stroke:#1A6DAF;stroke-width:2.0;" x1="679" x2="891" y1="795.9531" y2="795.9531"/><text fill="#000000" font-family="sans-serif" font-size="13" font-weight="bold" lengthAdjust="spacing" textLength="14" x="686" y="791.0967">10</text><text fill="#000000" font-family="sans-serif" font-size="13" lengthAdjust="spacing" textLength="181" x="704" y="791.0967">Enregistrer le nouveau pointage</text><polygon fill="#1A6DAF" points="690,822.3047,680,826.3047,690,830.3047,686,826.3047" style="stroke:#1A6DAF;stroke-width:1.0;"/><line style="stroke:#1A6DAF;stroke-width:2.0;stroke-dasharray:2.0,2.0;" x1="684" x2="901" y1="826.3047" y2="826.3047"/><text fill="#000000" font-family="sans-serif" font-size="13" font-weight="bold" lengthAdjust="spacing" textLength="14" x="696" y="821.4482">11</text><text fill="#000000" font-family="sans-serif" font-size="13" lengthAdjust="spacing" textLength="72" x="714" y="821.4482">Confirmation</text><polygon fill="#1A6DAF" points="385,852.6563,375,856.6563,385,860.6563,381,856.6563" style="stroke:#1A6DAF;stroke-width:1.0;"/><line style="stroke:#1A6DAF;stroke-width:2.0;stroke-dasharray:2.0,2.0;" x1="379" x2="668" y1="856.6563" y2="856.6563"/><text fill="#000000" font-family="sans-serif" font-size="13" font-weight="bold" lengthAdjust="spacing" textLength="14" x="391" y="851.7998">12</text><text fill="#000000" font-family="sans-serif" font-size="13" lengthAdjust="spacing" textLength="181" x="409" y="851.7998">201 Created &#8212; Pointage ajout&#233;</text><polygon fill="#1A6DAF" points="91,899.3594,81,903.3594,91,907.3594,87,903.3594" style="stroke:#1A6DAF;stroke-width:1.0;"/><line style="stroke:#1A6DAF;stroke-width:2.0;stroke-dasharray:2.0,2.0;" x1="85" x2="363" y1="903.3594" y2="903.3594"/><text fill="#000000" font-family="sans-serif" font-size="13" font-weight="bold" lengthAdjust="spacing" textLength="14" x="97" y="890.3271">13</text><text fill="#000000" font-family="sans-serif" font-size="13" lengthAdjust="spacing" textLength="164" x="115" y="882.1514">Afficher message de succ&#232;s</text><text fill="#000000" font-family="sans-serif" font-size="13" lengthAdjust="spacing" textLength="113" x="115" y="898.5029">et actualiser la liste</text><line style="stroke:#000000;stroke-width:1.0;stroke-dasharray:2.0,2.0;" x1="35" x2="942.5" y1="912.3594" y2="912.3594"/><text fill="#000000" font-family="sans-serif" font-size="11" font-weight="bold" lengthAdjust="spacing" textLength="156" x="40" y="923.7783">[Plafond journalier d&#233;pass&#233;]</text><polygon fill="#1A6DAF" points="385,945.5469,375,949.5469,385,953.5469,381,949.5469" style="stroke:#1A6DAF;stroke-width:1.0;"/><line style="stroke:#1A6DAF;stroke-width:2.0;stroke-dasharray:2.0,2.0;" x1="379" x2="668" y1="949.5469" y2="949.5469"/><text fill="#000000" font-family="sans-serif" font-size="13" font-weight="bold" lengthAdjust="spacing" textLength="14" x="391" y="944.6904">14</text><text fill="#000000" font-family="sans-serif" font-size="13" lengthAdjust="spacing" textLength="253" x="409" y="944.6904">400 Bad Request &#8212; D&#233;passement d'heures</text><polygon fill="#1A6DAF" points="91,975.8984,81,979.8984,91,983.8984,87,979.8984" style="stroke:#1A6DAF;stroke-width:1.0;"/><line style="stroke:#1A6DAF;stroke-width:2.0;stroke-dasharray:2.0,2.0;" x1="85" x2="363" y1="979.8984" y2="979.8984"/><text fill="#000000" font-family="sans-serif" font-size="13" font-weight="bold" lengthAdjust="spacing" textLength="14" x="97" y="975.042">15</text><text fill="#000000" font-family="sans-serif" font-size="13" lengthAdjust="spacing" textLength="242" x="115" y="975.042">Afficher erreur "Plafond d'heures d&#233;pass&#233;"</text><!--SRC=[nLNDRjj64BxpAGRAmJ9Ymv8i6wvX6Q1-Y2ADKo5IauilAt8aRKpjihjBnsqHe0_HXuYUGs_I9-diaXHNbeGSguCWSVw- -UQReNxY8cEAhK3ZxpcA6E6l0EWJAYM_3cGg5RnfXzV3C2eUnqQglbG9gjBO6bvUTd_oZ2n-MYYPY-H8T2I5sOzzp-VudWlSoUs5Rkslquzkecuq39pJc2d3OvunOOxbyLsEf7hbvkCDErVTrY672VyJeNrPm1WomsPCxsCTNe_2w6RNvmZEohvVtPa_I7E0Ydvq5VLh-v7KrdOaRL- -78kofbS5ZM92atfGcCh5orl6VWi2NOjioHBvbOi5nURe6LPIo7Yfv0fXpbBjcofXEaLEbpn-4gWrT3mNXocMIg22TiipU5CQioInXQzyEo6kdbiAM6wao5SpL44mao_G6AVCu5mgWlLB68KduHH63nFuz-z_u44cUOhmMQedmrVOs94FiqA7nc-6frnJYbmzYkPebQNoZytwj05CGwwfYlNDQepGY1GHY28Xzr0iyfIfmdjkd-_COoVCJgQ8ccJATjENqXIHCpB1cyxevdhGTe59gImRHTy9Fef42h5PetO1oMmhL4e9n4CG298Co6UYry8-SpvbktUp-oZDNoWFQCOrfumdkO1CSc7O0XrNdrZAgIoN0jvzdi9R-BZvlaXHmyDcRJXbVGjZL9fhmsZGTnUpUuVq__gulctBGT3hGJYVytXfMqboi5gWgN25qEi5WMK3pk_ByTp28EKaLWKwf-c7NsHkB6Kr6us0bC6VIH7LH4iMYt_dbCgbl2shqa_Ic5TqotAGu6ugXtLIJ00DJ6I-ubfRoWy1TOuAccCblw0vi-S6p-1d4Yfg-eSwLZop0pizXZYGcV47cygOfUZcLZPJL_kqMIi-juCc8bUP1ZbB-O8PIItfHq5mROlCGBD00FVGElLJ7U25M5tH7N1pEK6bAD1ZXoOO15iSRWTkOVphP0eNBECNrJoeU7DOYlyCffAMo2hKQxfOdt8VBCLUovLwc-NwdJggNKHTjEuzPV1iWxdPhAsMjkMs8RHMf26MndHPtEJZd0PFRMbOEc8UHIQfpnWDGICKM0ErAncEXjTHEw2VvpM0ZsWeHdW9VUqaCzVLI2XSqFufND4r1yBbJeJjXwK61Ww7Gu_G7BtSmbqFEjtb1KbSdHRlZfqcwdokh93vCx9ykmVLaTo3xWxK3lo157DknK6C5-PTy7LfJt2TLXi62iadSGTeN5qZPdToi_w1jhR28ZtbSRpvNeYKwkP4WIvcIJ_iXK1wMm6z9-QIZeQbGv0BUIIRTSQqfbg78NPRBUYpXCP35qCR1tDOn1GpI4wAcVy0QodzHWMX2gi1D89Y7JpYB9hz2_8V]--></g></svg>