<?xml version="1.0" encoding="us-ascii" standalone="no"?><svg xmlns="http://www.w3.org/2000/svg" xmlns:xlink="http://www.w3.org/1999/xlink" contentStyleType="text/css" height="931px" preserveAspectRatio="none" style="width:2148px;height:931px;background:#FFFFFF;" version="1.1" viewBox="0 0 2148 931" width="2148px" zoomAndPan="magnify"><defs><filter height="300%" id="fytx4vvy6vx4m" width="300%" x="-1" y="-1"><feGaussianBlur result="blurOut" stdDeviation="2.0"/><feColorMatrix in="blurOut" result="blurOut2" type="matrix" values="0 0 0 0 0 0 0 0 0 0 0 0 0 0 0 0 0 0 .4 0"/><feOffset dx="4.0" dy="4.0" in="blurOut2" result="blurOut3"/><feBlend in="SourceGraphic" in2="blurOut3" mode="normal"/></filter></defs><g><text fill="#0A2540" font-family="sans-serif" font-size="14" font-weight="bold" lengthAdjust="spacing" textLength="471.4375" x="836.9063" y="49.5332">Plateforme KAFA'AT EMS &#8212; Gestion et Recouvrement des Factures</text><rect fill="none" height="46.6406" style="stroke:none;stroke-width:1.0;" width="2115.25" x="15" y="79.6094"/><rect fill="#EBF5FB" height="834.8281" style="stroke:#EBF5FB;stroke-width:1.0;" width="881.25" x="15" y="79.6094"/><ellipse cx="432" cy="141.25" fill="#222222" filter="url(#fytx4vvy6vx4m)" rx="10" ry="10" style="stroke:#222222;stroke-width:1.0;"/><rect fill="#E8F4FD" filter="url(#fytx4vvy6vx4m)" height="85.2188" rx="5" ry="5" style="stroke:#1A6DAF;stroke-width:2.0;" width="292" x="286" y="171.25"/><text fill="#0A2540" font-family="sans-serif" font-size="14" font-weight="bold" lengthAdjust="spacing" textLength="242" x="311" y="210.7832">Consulter les d&#233;tails d'une facture</text><text fill="#0A2540" font-family="sans-serif" font-size="14" font-weight="bold" lengthAdjust="spacing" textLength="205" x="311" y="228.3926">(S&#233;lectionn&#233;e depuis la liste)</text><polygon fill="#D6EAF8" filter="url(#fytx4vvy6vx4m)" points="50,276.4688,198,276.4688,210,299.6445,198,322.8203,50,322.8203,38,299.6445,50,276.4688" style="stroke:#1A6DAF;stroke-width:2.0;"/><text fill="#0A2540" font-family="sans-serif" font-size="13" font-weight="bold" lengthAdjust="spacing" textLength="133" x="143" y="347.6719">Enregistrer paiement</text><text fill="#0A2540" font-family="sans-serif" font-size="13" font-weight="bold" lengthAdjust="spacing" textLength="118" x="65" y="304.9639">Action souhait&#233;e ?</text><rect fill="#E8F4FD" filter="url(#fytx4vvy6vx4m)" height="85.2188" rx="5" ry="5" style="stroke:#1A6DAF;stroke-width:2.0;" width="206" x="21" y="369.1719"/><text fill="#0A2540" font-family="sans-serif" font-size="14" font-weight="bold" lengthAdjust="spacing" textLength="146" x="46" y="408.7051">Saisir les r&#233;f&#233;rences</text><text fill="#0A2540" font-family="sans-serif" font-size="14" font-weight="bold" lengthAdjust="spacing" textLength="156" x="46" y="426.3145">(Mode, Date, Montant)</text><polygon fill="#D6EAF8" filter="url(#fytx4vvy6vx4m)" points="382.25,276.4688,530.25,276.4688,542.25,299.6445,530.25,322.8203,382.25,322.8203,370.25,299.6445,382.25,276.4688" style="stroke:#1A6DAF;stroke-width:2.0;"/><text fill="#0A2540" font-family="sans-serif" font-size="13" font-weight="bold" lengthAdjust="spacing" textLength="124" x="475.25" y="347.6719">V&#233;rifier et Relancer</text><text fill="#0A2540" font-family="sans-serif" font-size="13" font-weight="bold" lengthAdjust="spacing" textLength="118" x="397.25" y="304.9639">Action souhait&#233;e ?</text><text fill="#0A2540" font-family="sans-serif" font-size="13" font-weight="bold" lengthAdjust="spacing" textLength="77" x="557.25" y="281.7881">T&#233;l&#233;charger</text><rect fill="#D6EAF8" filter="url(#fytx4vvy6vx4m)" height="67.6094" rx="5" ry="5" style="stroke:#1A6DAF;stroke-width:2.0;" width="237" x="644.25" y="551.8438"/><text fill="#0A2540" font-family="sans-serif" font-size="14" font-weight="bold" lengthAdjust="spacing" textLength="187" x="669.25" y="591.377">T&#233;l&#233;charger la facture PDF</text><line style="stroke:#000000;stroke-width:1.5;" x1="15" x2="15" y1="79.6094" y2="914.4375"/><rect fill="#E8F4FD" height="834.8281" style="stroke:#E8F4FD;stroke-width:1.0;" width="1217.5" x="896.25" y="79.6094"/><rect fill="#E8F4FD" filter="url(#fytx4vvy6vx4m)" height="67.6094" rx="5" ry="5" style="stroke:#1A6DAF;stroke-width:2.0;" width="190" x="938.25" y="489.3906"/><text fill="#0A2540" font-family="sans-serif" font-size="14" font-weight="bold" lengthAdjust="spacing" textLength="140" x="963.25" y="528.9238">Valider les donn&#233;es</text><rect fill="#AED6F1" filter="url(#fytx4vvy6vx4m)" height="67.6094" rx="5" ry="5" style="stroke:#1A6DAF;stroke-width:2.0;" width="262" x="902.25" y="592"/><text fill="#0A2540" font-family="sans-serif" font-size="14" font-weight="bold" lengthAdjust="spacing" textLength="212" x="927.25" y="631.5332">Mettre &#224; jour le statut (PAYEE)</text><rect fill="#E8F4FD" filter="url(#fytx4vvy6vx4m)" height="67.6094" rx="5" ry="5" style="stroke:#1A6DAF;stroke-width:2.0;" width="194" x="936.25" y="679.6094"/><text fill="#0A2540" font-family="sans-serif" font-size="14" font-weight="bold" lengthAdjust="spacing" textLength="144" x="961.25" y="719.1426">G&#233;n&#233;rer le re&#231;u PDF</text><polygon fill="#D6EAF8" filter="url(#fytx4vvy6vx4m)" points="1359.25,369.1719,1663.25,369.1719,1675.25,392.3477,1663.25,415.5234,1359.25,415.5234,1347.25,392.3477,1359.25,369.1719" style="stroke:#1A6DAF;stroke-width:2.0;"/><text fill="#0A2540" font-family="sans-serif" font-size="13" font-weight="bold" lengthAdjust="spacing" textLength="274" x="1374.25" y="397.667">Statut = EN_ATTENTE et Date &gt; &#201;ch&#233;ance ?</text><text fill="#0A2540" font-family="sans-serif" font-size="13" font-weight="bold" lengthAdjust="spacing" textLength="22" x="1310.25" y="374.4912">Oui</text><text fill="#0A2540" font-family="sans-serif" font-size="13" font-weight="bold" lengthAdjust="spacing" textLength="25" x="1690.25" y="374.4912">Non</text><rect fill="#FFCCCC" filter="url(#fytx4vvy6vx4m)" height="67.6094" rx="5" ry="5" style="stroke:#1A6DAF;stroke-width:2.0;" width="299" x="1187.75" y="425.5234"/><text fill="#0A2540" font-family="sans-serif" font-size="14" font-weight="bold" lengthAdjust="spacing" textLength="249" x="1212.75" y="465.0566">Mettre &#224; jour le statut (EN_RETARD)</text><rect fill="#E8F4FD" filter="url(#fytx4vvy6vx4m)" height="67.6094" rx="5" ry="5" style="stroke:#1A6DAF;stroke-width:2.0;" width="326" x="1174.25" y="528.1328"/><text fill="#0A2540" font-family="sans-serif" font-size="14" font-weight="bold" lengthAdjust="spacing" textLength="276" x="1199.25" y="567.666">Envoyer l'email de relance automatique</text><rect fill="#D6EAF8" filter="url(#fytx4vvy6vx4m)" height="85.2188" rx="5" ry="5" style="stroke:#1A6DAF;stroke-width:2.0;" width="297" x="1536.75" y="425.5234"/><text fill="#0A2540" font-family="sans-serif" font-size="14" font-weight="bold" lengthAdjust="spacing" textLength="103" x="1561.75" y="465.0566">Action ignor&#233;e</text><text fill="#0A2540" font-family="sans-serif" font-size="14" font-weight="bold" lengthAdjust="spacing" textLength="247" x="1561.75" y="482.666">(Facture sold&#233;e ou dans les d&#233;lais)</text><polygon fill="#D6EAF8" filter="url(#fytx4vvy6vx4m)" points="1511.25,631.7422,1523.25,643.7422,1511.25,655.7422,1499.25,643.7422,1511.25,631.7422" style="stroke:#1A6DAF;stroke-width:2.0;"/><rect fill="#E8F4FD" filter="url(#fytx4vvy6vx4m)" height="67.6094" rx="5" ry="5" style="stroke:#1A6DAF;stroke-width:2.0;" width="260" x="1843.75" y="449.2344"/><text fill="#0A2540" font-family="sans-serif" font-size="14" font-weight="bold" lengthAdjust="spacing" textLength="210" x="1868.75" y="488.7676">Pr&#233;parer le document original</text><rect fill="#AED6F1" filter="url(#fytx4vvy6vx4m)" height="85.2188" rx="5" ry="5" style="stroke:#1A6DAF;stroke-width:2.0;" width="256" x="1359" y="787.2188"/><text fill="#0A2540" font-family="sans-serif" font-size="14" font-weight="bold" lengthAdjust="spacing" textLength="206" x="1384" y="826.752">Enregistrer l'action effectu&#233;e</text><text fill="#0A2540" font-family="sans-serif" font-size="14" font-weight="bold" lengthAdjust="spacing" textLength="155" x="1384" y="844.3613">dans le journal d'audit</text><ellipse cx="1487" cy="903.4375" fill="none" filter="url(#fytx4vvy6vx4m)" rx="11" ry="11" style="stroke:#222222;stroke-width:1.0;"/><ellipse cx="1487" cy="903.4375" fill="#222222" rx="6" ry="6" style="stroke:#222222;stroke-width:1.0;"/><line style="stroke:#000000;stroke-width:1.5;" x1="896.25" x2="896.25" y1="79.6094" y2="914.4375"/><line style="stroke:#000000;stroke-width:1.5;" x1="2113.75" x2="2113.75" y1="79.6094" y2="914.4375"/><line style="stroke:#1A6DAF;stroke-width:2.0;" x1="432" x2="432" y1="151.25" y2="171.25"/><polygon fill="#1A6DAF" points="428,161.25,432,171.25,436,161.25,432,165.25" style="stroke:#1A6DAF;stroke-width:1.0;"/><line style="stroke:#1A6DAF;stroke-width:2.0;" x1="124" x2="124" y1="322.8203" y2="369.1719"/><polygon fill="#1A6DAF" points="120,359.1719,124,369.1719,128,359.1719,124,363.1719" style="stroke:#1A6DAF;stroke-width:1.0;"/><line style="stroke:#1A6DAF;stroke-width:2.0;" x1="210" x2="370.25" y1="299.6445" y2="299.6445"/><polygon fill="#1A6DAF" points="360.25,295.6445,370.25,299.6445,360.25,303.6445,364.25,299.6445" style="stroke:#1A6DAF;stroke-width:1.0;"/><line style="stroke:#1A6DAF;stroke-width:2.0;" x1="432" x2="432" y1="256.4688" y2="261.4688"/><line style="stroke:#1A6DAF;stroke-width:2.0;" x1="432" x2="124" y1="261.4688" y2="261.4688"/><line style="stroke:#1A6DAF;stroke-width:2.0;" x1="124" x2="124" y1="261.4688" y2="276.4688"/><polygon fill="#1A6DAF" points="120,266.4688,124,276.4688,128,266.4688,124,270.4688" style="stroke:#1A6DAF;stroke-width:1.0;"/><line style="stroke:#1A6DAF;stroke-width:2.0;" x1="762.75" x2="762.75" y1="619.4531" y2="767.2188"/><polygon fill="#1A6DAF" points="758.75,757.2188,762.75,767.2188,766.75,757.2188,762.75,761.2188" style="stroke:#1A6DAF;stroke-width:1.0;"/><line style="stroke:#1A6DAF;stroke-width:2.0;" x1="432" x2="891.25" y1="767.2188" y2="767.2188"/><line style="stroke:#1A6DAF;stroke-width:2.0;" x1="1033.25" x2="1033.25" y1="557" y2="592"/><polygon fill="#1A6DAF" points="1029.25,582,1033.25,592,1037.25,582,1033.25,586" style="stroke:#1A6DAF;stroke-width:1.0;"/><line style="stroke:#1A6DAF;stroke-width:2.0;" x1="1033.25" x2="1033.25" y1="659.6094" y2="679.6094"/><polygon fill="#1A6DAF" points="1029.25,669.6094,1033.25,679.6094,1037.25,669.6094,1033.25,673.6094" style="stroke:#1A6DAF;stroke-width:1.0;"/><line style="stroke:#1A6DAF;stroke-width:2.0;" x1="1337.25" x2="1337.25" y1="493.1328" y2="528.1328"/><polygon fill="#1A6DAF" points="1333.25,518.1328,1337.25,528.1328,1341.25,518.1328,1337.25,522.1328" style="stroke:#1A6DAF;stroke-width:1.0;"/><line style="stroke:#1A6DAF;stroke-width:2.0;" x1="1347.25" x2="1337.25" y1="392.3477" y2="392.3477"/><line style="stroke:#1A6DAF;stroke-width:2.0;" x1="1337.25" x2="1337.25" y1="392.3477" y2="425.5234"/><polygon fill="#1A6DAF" points="1333.25,415.5234,1337.25,425.5234,1341.25,415.5234,1337.25,419.5234" style="stroke:#1A6DAF;stroke-width:1.0;"/><line style="stroke:#1A6DAF;stroke-width:2.0;" x1="1675.25" x2="1685.25" y1="392.3477" y2="392.3477"/><line style="stroke:#1A6DAF;stroke-width:2.0;" x1="1685.25" x2="1685.25" y1="392.3477" y2="425.5234"/><polygon fill="#1A6DAF" points="1681.25,415.5234,1685.25,425.5234,1689.25,415.5234,1685.25,419.5234" style="stroke:#1A6DAF;stroke-width:1.0;"/><line style="stroke:#1A6DAF;stroke-width:2.0;" x1="1337.25" x2="1337.25" y1="595.7422" y2="643.7422"/><line style="stroke:#1A6DAF;stroke-width:2.0;" x1="1337.25" x2="1499.25" y1="643.7422" y2="643.7422"/><polygon fill="#1A6DAF" points="1489.25,639.7422,1499.25,643.7422,1489.25,647.7422,1493.25,643.7422" style="stroke:#1A6DAF;stroke-width:1.0;"/><line style="stroke:#1A6DAF;stroke-width:2.0;" x1="1685.25" x2="1685.25" y1="510.7422" y2="643.7422"/><line style="stroke:#1A6DAF;stroke-width:2.0;" x1="1685.25" x2="1523.25" y1="643.7422" y2="643.7422"/><polygon fill="#1A6DAF" points="1533.25,639.7422,1523.25,643.7422,1533.25,647.7422,1529.25,643.7422" style="stroke:#1A6DAF;stroke-width:1.0;"/><line style="stroke:#1A6DAF;stroke-width:2.0;" x1="1033.25" x2="1033.25" y1="747.2188" y2="767.2188"/><polygon fill="#1A6DAF" points="1029.25,757.2188,1033.25,767.2188,1037.25,757.2188,1033.25,761.2188" style="stroke:#1A6DAF;stroke-width:1.0;"/><line style="stroke:#1A6DAF;stroke-width:2.0;" x1="1511.25" x2="1511.25" y1="655.7422" y2="767.2188"/><polygon fill="#1A6DAF" points="1507.25,757.2188,1511.25,767.2188,1515.25,757.2188,1511.25,761.2188" style="stroke:#1A6DAF;stroke-width:1.0;"/><line style="stroke:#1A6DAF;stroke-width:2.0;" x1="902.25" x2="1511.25" y1="767.2188" y2="767.2188"/><line style="stroke:#1A6DAF;stroke-width:2.0;" x1="1487" x2="1487" y1="872.4375" y2="892.4375"/><polygon fill="#1A6DAF" points="1483,882.4375,1487,892.4375,1491,882.4375,1487,886.4375" style="stroke:#1A6DAF;stroke-width:1.0;"/><line style="stroke:#1A6DAF;stroke-width:2.0;" x1="124" x2="124" y1="454.3906" y2="471.8906"/><line style="stroke:#1A6DAF;stroke-width:2.0;" x1="124" x2="1033.25" y1="471.8906" y2="471.8906"/><line style="stroke:#1A6DAF;stroke-width:2.0;" x1="1033.25" x2="1033.25" y1="471.8906" y2="489.3906"/><polygon fill="#1A6DAF" points="1029.25,479.3906,1033.25,489.3906,1037.25,479.3906,1033.25,483.3906" style="stroke:#1A6DAF;stroke-width:1.0;"/><line style="stroke:#1A6DAF;stroke-width:2.0;" x1="1973.75" x2="1973.75" y1="516.8438" y2="534.3438"/><line style="stroke:#1A6DAF;stroke-width:2.0;" x1="1973.75" x2="762.75" y1="534.3438" y2="534.3438"/><line style="stroke:#1A6DAF;stroke-width:2.0;" x1="762.75" x2="762.75" y1="534.3438" y2="551.8438"/><polygon fill="#1A6DAF" points="758.75,541.8438,762.75,551.8438,766.75,541.8438,762.75,545.8438" style="stroke:#1A6DAF;stroke-width:1.0;"/><line style="stroke:#1A6DAF;stroke-width:2.0;" x1="456.25" x2="456.25" y1="322.8203" y2="326.8203"/><line style="stroke:#1A6DAF;stroke-width:2.0;" x1="456.25" x2="1511.25" y1="326.8203" y2="326.8203"/><line style="stroke:#1A6DAF;stroke-width:2.0;" x1="1511.25" x2="1511.25" y1="326.8203" y2="369.1719"/><polygon fill="#1A6DAF" points="1507.25,359.1719,1511.25,369.1719,1515.25,359.1719,1511.25,363.1719" style="stroke:#1A6DAF;stroke-width:1.0;"/><line style="stroke:#1A6DAF;stroke-width:2.0;" x1="432" x2="432" y1="767.2188" y2="772.2188"/><line style="stroke:#1A6DAF;stroke-width:2.0;" x1="432" x2="1487" y1="772.2188" y2="772.2188"/><line style="stroke:#1A6DAF;stroke-width:2.0;" x1="1487" x2="1487" y1="772.2188" y2="787.2188"/><polygon fill="#1A6DAF" points="1483,777.2188,1487,787.2188,1491,777.2188,1487,781.2188" style="stroke:#1A6DAF;stroke-width:1.0;"/><text fill="#0A2540" font-family="sans-serif" font-size="18" lengthAdjust="spacing" textLength="114" x="398.625" y="112.75">Administrateur</text><text fill="#0A2540" font-family="sans-serif" font-size="18" lengthAdjust="spacing" textLength="69" x="1470.5" y="112.75">Syst&#232;me</text><!--SRC=[ZLFDRjD04BxxAKRg8Od4eIbjLAK2v3Ps3oWbQg9AI4XeyOwJfPlTi3-jWdBWofq7u0Pv3hy9JyAixJP1ZLDoiZ8ptz_CsbkX5iomEOmOvq9DeNiIsSS_cJ7wVZ8JsQr2Q-5egnHdJjm9jppNXgFPtJDYnWadj7hQjDN5CMTUkbGhDnPV4Rgd3KMtb0YVjEGxP6ocZvkg-yO7WisruXkKbyyqxGGBQJL0F9OsWxl2PDdjr6Yl-8MMsi11SfeUfuF6sEkkRjmRn6cpuYUmWruIfwTx1luBlJJLrBIrkBhbC3uwEJxSUHvFR9-d9-bvyoKraJwsRT7kRwfMrMiixzfpgJJJHg61xhOXEsDStuTNv8p7A28ScXv9vZ3NPexmDaxZLZo1P3Y6Fzz-m2NQm0Jeu1epxUyCpb4v2iz2oZBd3TeeMjLvh68-5qfOPmZGcrLa7McD-XTQMOgQr4YQuyNQCI7fe-KLGbx1V53jSR6Mc0K-LQoHE1PUM90C945YvooAH0xjkEm0g_sC2HSQttJ0pL11Er46fu6Uc1PCb58x4K1_p8GL5RifrdcnDgWojCGvr1nVm83qle0XvSbeuen6LlLbhyPBwuhVSrm5d1ic1N-mKScqeViWJWQzjDiVeYDoA7x2P-r36r02pZjeZ-BtIL8Yzo-BjGeAohh1ufU7qI0bToWjFkFmXWP5BcYst8XaPCDqclG6i74bu1KaLn_ZoIIvcYHXDZY6rr1ypsR5Eg1iEDvv4H39LPfUq6-FAyAyJYRnzQ1qHjuITQUNmLaBvxHZsY4vB5K2yqxFcHDVF8RcO1RQLrhLNDMBxzVUnLHfsbIuYlhCA0x9GnRQ0sVAFfoIfDMMxAYuoAiGeJsXGh7EPinCz-JJ7n47lOng5LndlZnkRSHKA2RhEzXzsXl9_t25SwqlkjfgBMi7_yFHR5-jRB4g0CnpUWg-ZA2sMwPFikZTCC-5EwFdfHVHNm00]--></g></svg>